<?xml version="1.0" encoding="UTF-8" standalone="no"?>
<!-- Created with Inkscape (http://www.inkscape.org/) -->

<svg
   xmlns:svg="http://www.w3.org/2000/svg"
   xmlns="http://www.w3.org/2000/svg"
   version="1.1"
   width="331"
   height="320"
   viewBox="-0.4 -0.4 331 320"
   id="svg2"
   xml:space="preserve">
<defs
   id="defs4">
</defs>





























































































































































































































































































































<g
   transform="matrix(1.1517917,0,0,1.1517917,-1.5312076,16.077462)"
   id="g4030"
   style="fill:#ffffff"><polygon
     points="119.007,33.396 119.099,33.335 118.937,33.254 "
     id="polygon91"
     style="fill:#ffffff;fill-opacity:1;stroke:none" /><polygon
     points="95.369,27.221 94.304,27.221 94.942,27.646 94.942,28.072 "
     id="polygon93"
     style="fill:#ffffff;fill-opacity:1;stroke:none" /><polygon
     points="85.146,37.23 85.785,37.23 85.359,36.377 "
     id="polygon95"
     style="fill:#ffffff;fill-opacity:1;stroke:none" /><polygon
     points="83.869,37.23 84.72,37.23 84.294,37.869 85.146,37.442 84.508,37.017 84.72,36.377 "
     id="polygon97"
     style="fill:#ffffff;fill-opacity:1;stroke:none" /><polygon
     points="118.156,32.118 118.368,32.544 119.221,31.906 "
     id="polygon99"
     style="fill:#ffffff;fill-opacity:1;stroke:none" /><polygon
     points="88.554,35.525 88.98,35.313 88.554,35.1 "
     id="polygon101"
     style="fill:#ffffff;fill-opacity:1;stroke:none" /><polygon
     points="110.063,34.035 110.276,34.674 110.489,34.887 "
     id="polygon103"
     style="fill:#ffffff;fill-opacity:1;stroke:none" /><polygon
     points="87.063,34.674 86.637,34.461 87.063,35.1 "
     id="polygon105"
     style="fill:#ffffff;fill-opacity:1;stroke:none" /><polygon
     points="88.554,30.841 88.128,32.118 88.98,32.118 "
     id="polygon107"
     style="fill:#ffffff;fill-opacity:1;stroke:none" /><polygon
     points="83.656,37.017 83.869,36.59 83.017,36.804 "
     id="polygon109"
     style="fill:#ffffff;fill-opacity:1;stroke:none" /><polygon
     points="108.359,35.525 108.999,36.165 108.572,35.1 "
     id="polygon111"
     style="fill:#ffffff;fill-opacity:1;stroke:none" /><path
     d="m 125.184,12.525 2.129,1.278 2.13,-1.278 0.639,-1.064 0.64,0.212 v -0.852 l 0.638,-0.212 -0.851,-1.278 h -0.853 l -0.212,-0.639 -0.639,0.852 0.426,1.065 -0.638,-1.491 -0.213,0.639 -0.426,-0.212 v 1.277 l -0.213,-1.065 h -0.213 l -0.639,-0.212 -1.278,0.426 0.852,1.278 -0.852,-0.426 -0.213,-1.065 -0.426,0.426 0.213,0.213 h -0.213 V 10.184 9.332 l -1.491,-0.852 0.525,2.797 -0.737,0.185 0.425,-0.426 -0.425,0.213 0.425,-0.852 -0.425,-0.852 -1.491,1.065 0.852,0.426 h -0.426 v 0.852 l 0.212,0.142 v 0.497 l -0.212,-0.639 -0.213,0.426 -0.639,-0.426 v 0.852 h -0.426 l 4.046,0.426 0.212,-0.641 z m -1.278,0 0.157,-0.939 0.056,0.3 1.064,0.638 -1.064,-0.425 -0.213,0.426 z"
     id="path181"
     style="fill:#ffffff;fill-opacity:1;stroke:none" /><polygon
     points="164.793,25.729 165.22,26.369 163.73,26.794 163.73,27.859 163.943,28.711 163.303,29.563 163.943,29.137 165.433,29.989 167.35,29.989 167.137,28.924 166.923,29.35 165.86,29.137 165.86,28.286 166.498,28.072 166.285,27.434 167.35,26.582 166.71,26.155 166.71,26.794 165.86,26.794 165.646,25.942 165.86,25.517 "
     id="polygon183"
     style="fill:#ffffff;fill-opacity:1;stroke:none" /><polygon
     points="183.109,44.896 182.045,45.961 183.109,46.6 183.536,45.961 184.173,46.174 184.813,44.896 185.026,45.535 185.876,45.322 184.813,44.258 "
     id="polygon185"
     style="fill:#ffffff;fill-opacity:1;stroke:none" /><polygon
     points="167.777,38.72 167.777,39.359 167.137,39.359 167.777,40.211 168.201,40.637 168.415,39.998 "
     id="polygon187"
     style="fill:#ffffff;fill-opacity:1;stroke:none" /><polygon
     points="158.192,14.017 157.979,14.656 159.256,14.229 160.749,12.952 160.536,12.525 159.469,13.804 "
     id="polygon189"
     style="fill:#ffffff;fill-opacity:1;stroke:none" /><polygon
     points="162.239,25.517 161.813,26.582 162.239,26.794 162.239,26.369 162.666,26.794 163.09,25.942 "
     id="polygon191"
     style="fill:#ffffff;fill-opacity:1;stroke:none" /><polygon
     points="184.599,48.517 183.749,49.155 183.961,49.582 185.026,49.155 "
     id="polygon193"
     style="fill:#ffffff;fill-opacity:1;stroke:none" /><polygon
     points="166.498,39.786 166.71,39.359 166.073,39.146 165.86,39.786 "
     id="polygon195"
     style="fill:#ffffff;fill-opacity:1;stroke:none" /><polygon
     points="138.174,9.97 138.6,8.693 138.174,7.415 137.322,7.628 "
     id="polygon197"
     style="fill:#ffffff;fill-opacity:1;stroke:none" /><polygon
     points="162.026,24.239 162.453,24.025 161.6,23.6 162.026,24.877 "
     id="polygon199"
     style="fill:#ffffff;fill-opacity:1;stroke:none" /><polygon
     points="165.007,39.146 165.22,38.294 164.581,38.507 164.369,39.146 "
     id="polygon201"
     style="fill:#ffffff;fill-opacity:1;stroke:none" /><polygon
     points="144.137,11.674 143.285,11.674 143.499,12.1 "
     id="polygon203"
     style="fill:#ffffff;fill-opacity:1;stroke:none" /><polygon
     points="166.923,38.294 166.71,38.934 167.137,38.72 "
     id="polygon205"
     style="fill:#ffffff;fill-opacity:1;stroke:none" /><polygon
     points="165.86,39.572 165.22,39.786 165.646,39.998 "
     id="polygon207"
     style="fill:#ffffff;fill-opacity:1;stroke:none" /><polygon
     points="160.961,11.887 160.961,12.313 161.386,11.887 "
     id="polygon209"
     style="fill:#ffffff;fill-opacity:1;stroke:none" /><polygon
     points="138.387,12.313 138.6,11.887 137.749,12.1 "
     id="polygon211"
     style="fill:#ffffff;fill-opacity:1;stroke:none" /><polygon
     points="144.35,11.035 144.137,10.609 143.499,11.035 143.499,11.248 "
     id="polygon213"
     style="fill:#ffffff;fill-opacity:1;stroke:none" /><polygon
     points="153.932,14.869 153.294,14.656 153.721,15.081 "
     id="polygon215"
     style="fill:#ffffff;fill-opacity:1;stroke:none" /><polygon
     points="164.581,25.729 164.156,25.942 164.156,26.155 164.581,26.369 "
     id="polygon217"
     style="fill:#ffffff;fill-opacity:1;stroke:none" /><polygon
     points="166.073,7.628 164.156,10.396 165.646,9.118 "
     id="polygon239"
     style="fill:#ffffff;fill-opacity:1;stroke:none" /><polygon
     points="229.322,58.1 229.322,58.952 230.173,58.952 229.961,57.248 229.322,56.822 229.536,57.674 228.469,57.248 "
     id="polygon277"
     style="fill:#ffffff;fill-opacity:1;stroke:none" /><polygon
     points="202.489,5.924 203.128,5.498 202.489,4.646 201.849,5.286 "
     id="polygon279"
     style="fill:#ffffff;fill-opacity:1;stroke:none" /><polygon
     points="202.489,2.09 203.128,2.517 203.552,1.877 202.915,1.452 202.489,1.877 "
     id="polygon281"
     style="fill:#ffffff;fill-opacity:1;stroke:none" /><polygon
     points="231.876,60.23 231.666,60.869 232.516,60.869 "
     id="polygon283"
     style="fill:#ffffff;fill-opacity:1;stroke:none" /><polygon
     points="202.276,1.877 202.489,1.025 201.849,1.452 201.849,1.665 "
     id="polygon285"
     style="fill:#ffffff;fill-opacity:1;stroke:none" /><polygon
     points="233.793,63.424 233.156,63.424 233.581,63.851 "
     id="polygon287"
     style="fill:#ffffff;fill-opacity:1;stroke:none" /><polygon
     points="8.693,114.109 8.693,113.044 6.989,109.211 6.989,111.341 "
     id="polygon309"
     style="fill:#ffffff;fill-opacity:1;stroke:none" /><polygon
     points="23.813,74.285 22.748,75.776 23.387,75.776 "
     id="polygon311"
     style="fill:#ffffff;fill-opacity:1;stroke:none" /><polygon
     points="248.489,71.73 248.062,71.304 247.637,70.665 247.424,71.73 "
     id="polygon351"
     style="fill:#ffffff;fill-opacity:1;stroke:none" /><polygon
     points="253.813,85.146 254.026,85.572 254.026,84.294 253.813,84.934 "
     id="polygon353"
     style="fill:#ffffff;fill-opacity:1;stroke:none" /><polygon
     points="247.211,70.665 247.637,70.665 247.849,70.026 "
     id="polygon355"
     style="fill:#ffffff;fill-opacity:1;stroke:none" /><path
     d="m 278.516,129.443 -0.851,-0.852 -0.606,-2.546 -0.033,-0.01 0.033,0.01 -0.46,-1.926 -0.638,-0.852 -0.64,0.425 0.427,-0.639 -0.853,-0.426 0.64,-0.639 -0.64,-0.639 0.853,-0.426 -0.64,-0.639 v -0.639 l 1.064,1.277 -0.638,-1.917 -0.214,0.64 0.427,-1.704 -0.42,-0.279 0.207,-1.851 h -0.427 l 0.853,-3.407 h -0.426 l -0.427,-0.852 -0.427,1.277 0.214,-1.064 h -0.638 l 0.424,-0.426 -0.851,-0.639 v -1.278 l 0.638,-0.639 -1.277,0.426 1.066,-0.426 -0.214,-1.065 -2.343,-0.639 0.64,-0.426 -1.279,-1.491 0.213,-0.852 -0.638,-0.426 -0.213,0.426 0.213,-0.639 -1.278,-0.64 v 0.213 l -1.064,-1.065 -1.064,-2.769 -0.853,-0.212 0.213,-0.852 -0.426,0.639 V 98.35 l -0.64,-0.213 0.426,0.852 -0.851,-0.426 v 0.426 l -0.853,-0.426 v 0.426 l -2.768,-3.833 -0.64,0.852 -0.851,-1.277 0.424,-0.213 -0.638,-1.278 0.425,-0.425 -0.638,-2.342 h 0.427 l 0.211,-1.705 -0.425,-1.064 v 0.639 l -0.426,-0.213 -0.427,-0.852 0.64,0.213 0.213,-0.213 -0.64,-1.065 v 0.852 l -0.213,-0.852 -0.426,-0.212 -0.212,0.639 0.638,1.065 -0.426,-0.213 0.426,1.065 -2.98,-2.13 -1.066,-1.704 -0.211,0.426 -0.64,1.064 0.64,1.491 0.425,0.852 -0.425,-0.426 -1.279,-1.49 -1.277,1.49 0.64,-1.49 h -0.853 l 0.426,-0.213 -0.213,-0.425 -0.851,0.212 0.851,-0.426 -1.277,-2.981 0.427,-2.342 -0.214,0.425 -0.853,-0.852 -0.213,0.427 v -1.917 l -0.851,0.425 0.213,-0.639 h -0.213 l 0.424,-1.065 -0.851,-0.852 -0.64,0.426 0.213,-0.852 h -1.49 l -0.213,-0.639 0.426,-0.213 -1.063,-0.639 0.211,-0.426 -0.638,-0.639 0.638,-0.213 -0.424,-0.426 0.638,0.213 0.213,-0.426 1.065,0.852 -1.278,-2.13 -0.425,0.213 v -0.639 h -0.64 l -0.213,-0.852 h -0.64 -0.213 v 0.852 l -0.639,-0.213 -0.853,-0.852 0.214,-0.213 v -0.213 l -1.064,-0.639 -1.277,0.213 -0.427,-1.492 h -0.639 l 0.426,1.065 -0.853,-0.213 -1.277,-1.277 0.853,0.425 -1.279,-2.768 v 0.852 l -1.916,0.212 -0.852,-1.916 -0.213,0.852 h -0.64 l -0.638,-0.852 -2.13,-0.853 -1.277,-1.49 0.425,-2.342 h -0.852 l -1.49,-2.556 1.064,-3.62 h -0.427 v -1.704 l -1.277,-2.343 0.427,-1.064 -1.066,0.212 -2.554,-3.407 v -1.065 h 0.426 v -1.49 l -0.853,-1.065 -0.213,-2.342 -0.852,-0.852 1.064,-1.278 v -0.213 l -0.64,0.213 -0.211,-1.065 0.851,-1.064 h -0.427 l -0.424,-0.852 -1.279,-0.213 -0.852,-1.278 -1.49,-0.425 -1.065,-2.769 -1.277,1.065 -0.853,-0.426 -0.425,1.278 -1.279,0.639 -1.063,-0.852 -0.64,-2.769 -1.064,-1.704 0.427,-2.13 -0.64,-2.129 0.213,-1.917 -1.277,0.426 0.638,-1.916 -1.277,-0.852 v -0.852 l -1.063,-0.213 -0.214,-1.491 1.277,-1.064 -1.063,-0.427 -0.854,0.213 -0.638,-0.639 V 9.97 l -0.853,-2.556 h -0.64 L 205.04,6.562 v 0.426 l -0.854,0.425 1.066,-1.704 -0.213,-0.213 -0.214,-0.212 -0.853,0.212 -0.638,1.278 -1.279,0.426 0.214,1.065 -0.639,2.769 h -0.213 l -0.213,1.49 h 0.638 l -0.851,0.213 -0.214,1.278 0.427,0.639 0.426,-0.427 -0.426,0.64 -0.427,-0.213 -0.213,0.852 -0.213,-1.49 -1.064,1.704 0.64,0.213 h -0.64 l -0.853,2.129 h 0.64 l -0.213,-0.852 0.639,0.213 -0.426,0.213 0.853,0.639 h 1.064 l -1.064,0.426 1.064,0.426 -0.427,0.213 0.213,1.064 -0.851,-1.491 -0.427,1.065 -1.065,0.852 0.64,1.917 -0.213,0.639 0.426,-0.213 -0.213,0.213 0.426,0.213 h -0.853 l -1.063,3.194 1.063,2.343 -0.638,2.129 0.852,3.833 -1.277,3.407 -0.64,2.555 0.426,1.065 -1.49,4.259 -1.703,2.13 -0.427,2.769 -1.917,1.491 -3.62,0.852 -0.427,-0.213 -1.277,-0.852 -1.49,-0.213 -0.853,-1.064 -1.49,-0.639 -0.427,-1.916 -0.851,-0.852 -2.768,-0.853 -3.409,-0.425 -2.555,-3.407 -2.13,-0.639 -2.768,-1.917 -0.64,0.212 0.213,0.426 -1.065,-0.426 -0.639,0.213 v -0.852 l -2.343,-1.065 -0.851,-1.704 -3.407,-2.129 -0.214,0.212 V 35.1 l -0.64,0.213 -1.063,-1.065 -0.427,-1.49 1.277,-0.426 1.066,-2.556 1.277,-0.639 0.213,-1.278 1.064,-2.342 -0.852,0.639 -0.426,-0.213 -0.214,-1.917 0.427,0.213 0.426,-0.426 -0.639,-0.213 0.213,-0.639 0.638,-0.426 0.213,0.639 0.64,-1.277 0.213,1.065 0.214,-1.065 0.638,0.213 0.213,-0.639 0.427,1.065 -0.427,0.639 0.853,-0.426 0.638,-1.278 -0.638,-0.639 1.277,0.213 -1.277,-1.491 0.425,0.213 0.213,-0.426 0.427,0.639 -0.213,-0.852 h 0.639 l 0.427,-1.065 -0.213,-0.639 h 0.425 v 0.639 l 1.278,-1.491 -1.278,-1.278 -0.639,0.427 0.427,0.425 h -0.64 l -0.853,-1.917 h -0.425 l 0.638,-0.852 -2.555,1.917 1.491,0.427 -0.64,1.277 -0.638,0.427 -0.853,-0.213 -0.427,0.426 v -0.64 h -0.425 l 0.638,-1.064 -0.638,0.212 -0.213,-0.425 0.851,-1.065 -1.703,0.852 -0.214,0.639 -0.638,-0.425 1.704,-1.917 -2.344,1.277 -0.213,-0.425 -1.063,0.213 -1.066,0.639 0.853,0.426 -1.277,-0.213 0.425,0.639 -2.555,-1.065 -0.64,-1.49 -0.851,1.065 -2.557,-0.64 -0.64,1.278 0.427,-1.065 -0.427,-0.852 -0.424,0.213 -0.214,-0.639 -0.853,0.639 -0.638,-0.639 0.638,-0.64 -0.851,-0.212 -1.917,1.064 0.213,-0.852 -0.427,0.426 -0.426,-0.639 -0.638,0.426 0.212,-0.639 -1.278,0.213 -1.49,-2.556 h -0.426 l 0.212,0.64 -0.425,-0.213 -1.065,0.852 -1.491,-2.13 -0.426,0.639 -0.213,-1.278 -0.638,0.426 0.212,0.639 -1.065,-1.065 0.213,1.278 0.426,0.212 -0.426,0.64 -0.426,-1.491 -0.851,-0.639 v 0.852 l -1.066,-0.213 0.213,0.426 -0.425,0.425 1.065,-0.212 0.213,0.426 -0.213,0.213 0.852,0.213 0.212,0.639 0.853,-0.426 1.917,-0.213 v 0.425 h 0.426 l -0.426,0.213 0.638,0.213 h -0.426 l 0.426,0.213 -0.426,0.212 h 1.065 0.213 l -1.065,1.065 0.852,0.639 -0.412,0.213 -0.213,1.278 1.065,0.425 -1.491,-0.425 -0.639,0.425 -0.213,1.278 -0.426,-1.065 -0.638,0.426 -0.213,-0.64 -1.065,1.065 -1.065,-0.639 -2.981,0.425 -0.853,-0.639 -0.213,-1.065 -0.426,1.278 -1.704,-0.427 0.426,1.492 -1.065,-0.213 -0.426,0.425 1.065,0.852 -0.852,-0.212 0.399,0.665 -0.399,0.399 -0.426,-0.852 v 0.213 l -0.426,0.213 0.213,-1.065 -1.278,-0.213 0.213,1.492 h -0.426 l 1.277,0.639 h -0.639 v 0.425 l -1.065,-1.064 -0.639,0.212 0.213,0.426 -0.425,-0.426 v 1.491 l -1.491,0.425 v 1.491 l 1.278,1.491 -0.426,-0.213 -1.704,1.278 -0.639,-0.213 v -0.426 l -0.639,0.426 -0.213,1.917 0.426,-0.213 -0.852,0.639 0.213,1.065 -0.639,0.427 -0.426,-0.427 0.426,1.065 -0.426,-0.427 -0.426,0.852 -0.213,-0.639 -0.852,1.49 v 0.64 l 0.639,0.639 0.426,-0.426 v 0.64 l 0.852,-0.213 0.213,0.426 0.852,-0.426 -0.213,0.426 -1.065,0.639 h 0.639 v 0.426 h -0.212 l 0.142,0.284 0.163,0.081 0.547,-0.365 -0.213,0.639 1.491,-0.852 v 0.639 h -0.852 l 0.426,0.425 -0.639,-0.212 h -0.426 -0.852 l 0.426,0.852 -0.426,-0.426 0.213,1.49 -0.639,0.213 -0.639,-1.491 -0.639,-0.213 0.213,1.065 -0.852,-1.278 0.213,0.426 h -0.426 -0.213 l 0.426,0.639 -0.426,0.426 0.639,0.212 h -0.639 l -0.213,0.852 v -0.639 l -0.426,0.852 0.426,-1.065 -0.213,-0.213 0.213,-0.639 -0.426,-0.212 v 0.212 l 0.212,0.639 -0.426,-0.426 v -0.852 l -0.426,0.639 v -0.852 h -1.917 l -0.426,-0.425 -0.852,-0.213 -1.278,0.213 0.852,0.639 0.213,0.852 -0.852,-1.065 0.638,1.065 -0.212,-0.213 -0.213,0.426 -0.426,-0.426 -0.213,0.852 -0.426,-1.064 -0.426,0.639 1.064,2.982 h -0.426 l -0.213,-1.065 -1.065,-1.065 v 1.704 l -0.639,0.639 0.426,-0.852 -0.426,-0.639 0.426,-0.213 -0.213,-1.277 0.639,-1.491 h -0.426 l 0.852,-0.212 -0.426,-0.639 0.426,-0.212 -1.491,-1.065 -0.212,0.425 -1.917,-2.981 -1.491,-0.852 -0.213,-0.852 -0.639,-0.213 0.213,0.638 -0.639,-0.638 -0.426,0.425 V 27.22 l -0.426,0.425 -0.426,-1.064 -1.278,-0.427 v 0.427 l -0.852,-0.213 0.426,1.065 0.852,0.425 -0.373,-0.053 0.16,0.053 -0.16,-0.053 -1.118,-0.16 0.213,0.64 -0.426,0.425 -0.213,-0.425 -0.213,1.277 -0.639,-1.277 -0.426,0.212 0.426,-1.064 -1.277,0.852 -0.213,0.425 0.426,0.426 -0.852,0.426 -0.213,-1.065 H 95.15 l 0.426,-0.425 H 95.15 l 0.426,-0.426 -0.639,0.426 -0.639,-0.213 v 0.427 l -0.213,-0.427 v 0.427 l 1.278,0.639 -0.852,0.639 0.213,0.638 -0.639,0.427 0.426,0.852 h -0.852 v 1.065 l -0.639,-0.639 0.212,-0.853 -0.852,0.213 v -0.639 l -0.639,1.704 0.213,-1.917 0.426,-0.639 -0.852,-0.426 v 2.343 l -0.639,-0.213 -0.426,0.852 -0.213,-0.639 -0.426,0.425 0.213,-0.852 -0.852,0.852 0.426,0.213 -1.278,0.639 0.639,0.852 h 0.639 l -0.852,0.64 1.278,0.425 0.213,-0.425 0.426,0.212 -0.852,0.852 1.064,0.426 h -1.064 l -0.426,-0.639 -0.852,0.639 -0.639,-1.49 -0.426,0.212 0.213,0.852 -1.278,0.213 0.426,0.213 -0.213,0.639 1.278,-0.852 -1.278,1.065 0.426,0.426 1.065,-0.64 v 0.426 h 0.426 l -0.639,0.639 1.277,1.065 -1.064,-0.852 -0.426,0.425 -0.426,-0.852 -0.852,-0.212 v -0.426 l -0.639,0.426 -0.426,0.852 -0.213,-0.427 -0.212,0.639 -0.852,-0.212 0.213,0.212 -0.852,0.64 0.426,0.212 -0.639,0.213 0.852,2.342 0.213,-0.372 v 0.16 l 0.426,-0.64 -0.355,0.355 0.568,-0.994 0.639,-0.425 -0.426,0.425 h 0.639 l -0.852,0.639 -0.213,1.491 h 0.426 l -0.852,0.425 0.426,0.213 -0.426,0.213 -0.426,-1.065 -0.426,1.917 1.491,-0.213 1.278,0.639 1.065,-0.212 -1.065,0.425 -0.426,-0.425 -1.917,0.212 -0.426,-0.426 -0.426,0.426 0.373,0.224 -1.011,0.203 0.639,-0.213 -0.639,-0.213 -0.639,-0.852 -1.491,-0.639 0.639,0.639 h -0.426 l 0.426,0.64 -0.852,-0.64 v 0.213 l -1.065,-0.426 h 0.426 l -0.212,-0.426 h 0.426 l -0.852,-0.425 v 0.425 l -0.639,-0.213 0.213,0.427 -0.426,-0.427 0.426,0.64 -0.426,0.212 0.852,0.213 0.212,0.426 -0.639,-0.213 0.639,0.426 H 78.537 78.324 77.48 l 1.064,0.639 h -1.49 l 0.426,0.639 0.212,-0.426 0.639,0.213 -0.852,0.639 1.49,0.426 0.426,1.278 0.852,-0.426 v -0.426 l 0.426,0.213 -1.064,1.065 0.426,0.426 -0.639,-0.213 1.065,1.917 -1.917,-1.917 -0.639,0.213 0.852,1.49 -0.426,-0.213 -0.426,1.065 v 1.065 l -1.278,-1.278 -0.639,-2.129 -0.852,-0.64 v -1.704 h -0.639 l -0.639,-0.639 0.213,-0.852 0.639,-0.213 -0.426,-0.639 -0.639,0.213 -1.278,2.129 0.639,0.639 -1.704,-0.212 -0.213,0.639 0.426,0.852 -0.852,-0.426 v 0.426 l -0.852,0.213 -0.639,0.852 0.426,0.213 -1.065,0.852 -0.213,1.916 0.639,1.491 -0.426,1.491 1.491,0.213 v 0.852 l -2.981,2.13 -0.852,0.212 -0.639,0.852 0.426,0.64 -1.065,0.212 0.213,0.852 -1.065,1.917 -2.555,3.195 -5.963,2.556 -1.491,0.213 H 52.561 L 51.924,69.6 51.072,70.239 50.434,69.6 48.517,69.174 48.73,69.6 v 0.213 L 48.517,69.6 48.091,69.387 47.878,69.6 l -1.491,1.917 -4.472,0.852 v -0.426 l -1.704,1.065 0.213,0.426 h -0.639 l -0.426,0.852 -1.065,0.213 v -0.213 l -1.704,0.852 -1.278,-0.639 -0.213,-0.64 -1.491,0.852 -0.639,-0.212 -0.426,-0.213 0.639,-1.065 h -0.426 l -1.065,1.278 0.212,0.212 h -0.426 l -2.129,1.065 -0.639,-0.426 -0.213,1.064 -1.704,0.852 -0.639,1.278 -1.064,0.213 -1.065,1.704 -4.046,1.065 -1.704,1.064 -0.213,1.278 -0.426,0.213 -0.426,-0.213 0.213,0.852 -0.639,1.065 0.426,0.426 -0.426,-0.212 0.212,0.425 -0.852,1.065 -0.426,-0.639 -1.065,0.639 0.426,-1.49 -0.426,0.425 -0.213,-1.49 0.852,-2.556 -1.491,0.426 -2.129,5.111 1.065,2.769 -0.426,1.278 0.213,2.555 -2.129,2.982 -0.426,3.833 1.704,2.769 -0.213,0.427 0.426,1.704 0.852,0.639 2.342,4.685 0.639,0.213 0.212,1.064 h -0.639 l 0.213,2.343 -1.064,1.277 -1.065,-1.704 -0.213,-2.342 v 1.065 l -1.065,0.852 0.213,-2.343 -1.704,-2.769 -0.639,1.704 0.426,0.426 v -0.852 l 0.639,3.194 2.13,1.704 -0.213,1.917 -1.277,0.64 -0.213,-1.491 -0.213,1.278 -0.426,-2.556 -0.213,1.277 -0.852,-3.407 0.213,2.769 -0.639,-0.426 v -2.342 l -0.213,1.704 -0.852,-0.639 5.537,8.093 1.278,3.407 -0.426,1.065 0.426,2.129 2.343,2.769 0.639,1.278 -0.213,0.852 1.917,2.556 0.852,2.981 -0.213,3.833 v 0.427 l 0.639,3.407 4.259,8.944 0.213,3.194 1.065,-0.639 v 0.425 l -1.065,0.214 0.213,1.064 -0.426,0.639 0.213,1.491 -0.852,1.704 0.639,4.897 -2.342,2.769 h -1.065 l -1.278,-0.852 v 4.473 l 0.852,2.342 0.212,-0.426 1.278,-0.213 2.342,1.278 1.917,2.98 2.555,0.853 0.213,-0.639 0.852,0.639 h -1.065 l 1.704,1.064 0.639,-0.639 1.278,0.639 2.981,-0.425 1.704,1.063 0.426,-0.852 1.917,0.64 0.426,-0.213 -1.064,-0.427 0.426,-0.852 0.426,-0.213 -0.213,0.853 h 1.704 l -0.213,-0.64 1.491,-0.213 0.213,-1.278 1.917,-0.852 0.212,-0.852 1.065,-0.427 -0.426,-0.425 2.769,0.852 0.213,-0.852 0.852,0.213 v -0.852 l 1.065,0.212 -0.852,-0.852 2.981,-2.769 h 0.639 l 2.768,0.426 1.065,-0.852 5.324,-0.639 2.769,0.852 1.49,-0.639 0.852,1.491 h 1.065 l 0.426,-0.853 1.491,0.426 0.212,-0.639 2.769,-0.213 0.639,0.426 0.213,0.853 1.491,-1.065 1.064,0.426 2.982,-2.981 0.852,-3.407 0.852,-0.852 3.833,-1.278 7.667,-4.472 1.704,-0.426 3.195,0.426 3.62,-0.214 6.814,-2.129 5.111,-2.556 6.602,-0.64 1.064,-0.212 4.26,0.426 2.343,-1.277 4.046,2.129 2.981,2.342 h 1.917 l -0.213,-0.425 0.426,-0.214 h 1.491 l 2.555,2.131 h 2.556 l -0.64,-0.639 0.426,-0.214 0.427,0.426 0.426,-0.639 2.341,2.343 -0.638,0.213 v 1.064 l 1.277,-0.639 0.852,0.213 0.853,1.703 -0.64,0.853 0.213,-0.639 h -1.063 l 0.424,0.852 -0.424,0.64 0.851,0.212 -0.427,0.64 1.279,1.277 -0.426,-1.277 0.639,1.277 0.639,-0.426 1.278,0.853 -0.64,-0.64 1.064,0.213 -0.425,0.427 1.277,1.703 v 1.277 l 2.344,2.13 1.277,5.75 0.213,-0.639 0.213,0.639 0.425,0.213 -0.851,0.213 -0.427,-0.852 0.213,-0.213 -0.853,-0.214 v -0.425 l -0.638,1.277 0.851,-0.426 2.557,3.194 1.064,-0.639 1.065,1.278 0.425,-2.344 -1.49,0.64 0.64,-0.427 0.213,-1.703 0.851,-0.427 0.427,0.427 v -1.49 l 3.194,-3.621 2.556,-1.277 -0.64,0.213 0.427,-0.852 0.427,0.425 1.49,-0.425 1.49,-4.26 1.277,-1.491 0.853,0.427 v -4.26 l 1.064,2.343 0.213,1.917 0.64,0.639 -1.704,1.49 1.277,2.343 -2.556,2.556 -0.638,1.917 -0.427,0.213 0.427,1.277 -0.64,1.278 0.426,-0.213 0.214,1.277 -0.427,2.556 -0.427,0.426 -2.554,-0.639 -1.066,3.194 2.13,-0.214 1.704,-1.276 1.49,0.638 0.853,-0.425 -0.426,-0.427 1.063,-2.342 0.213,-2.13 1.279,-2.981 2.981,5.167 v -0.27 0.27 l 0.213,0.369 -0.427,0.214 -0.213,-0.639 -0.213,4.685 -2.342,2.13 2.981,0.213 1.277,-1.064 1.065,0.213 3.188,2.549 -3.188,-2.336 2.768,2.129 1.812,2.353 -1.383,-2.138 1.062,0.851 1.277,2.769 -0.564,-0.873 1.631,4.28 -0.213,1.065 -1.064,1.064 0.851,1.277 -0.426,0.639 1.703,2.343 2.477,3.301 0.08,0.32 1.277,1.064 2.982,0.213 2.342,1.916 v 1.065 l 0.64,-0.213 0.638,0.426 1.278,-1.491 2.555,1.278 1.704,-0.427 7.88,4.261 3.194,-3.195 2.557,-1.704 h 1.49 l 0.427,-1.276 -1.492,0.425 -0.852,-0.639 h 1.064 l 2.77,-2.13 1.277,2.556 -1.277,1.703 -1.917,-0.425 1.917,1.703 1.277,-0.852 0.64,0.213 0.211,-1.703 h 1.492 l 0.425,1.277 -0.851,0.213 -0.214,1.277 1.49,1.065 1.491,-0.213 0.213,0.426 -0.638,-0.213 1.064,1.916 0.851,-0.639 0.853,0.426 -0.213,-0.639 0.853,1.704 1.064,1.064 0.426,-2.769 -1.277,0.852 -0.426,-1.703 h 2.13 l 2.526,-0.843 4.075,-4.269 2.768,-1.703 -3.407,1.49 1.917,-1.278 -0.071,-0.071 -0.143,0.071 0.143,-0.071 -0.568,-0.567 1.492,0.427 1.703,-0.64 -0.213,0.426 9.371,-0.852 1.915,-1.703 -0.638,-0.639 h 0.851 l -0.213,0.639 1.278,-0.639 -0.213,-1.705 0.427,-0.212 h 0.425 l -0.425,-1.065 -0.853,-0.213 0.426,-0.852 -0.426,-1.065 0.426,0.214 0.427,-1.491 0.851,-3.407 -0.213,-2.13 0.426,-1.278 h -0.426 l 1.065,-0.852 -0.64,-0.852 0.854,0.213 1.703,-4.046 1.49,-0.427 -0.64,-1.276 0.64,-0.214 v 0.853 l 0.425,-0.214 -0.425,-1.277 -0.426,0.213 0.213,-0.426 -0.853,-0.213 1.49,-0.639 0.427,-1.491 -0.427,-0.639 0.64,-0.214 v -1.49 l 1.703,-1.703 -0.638,-0.214 1.064,-0.213 -1.277,-0.426 1.49,-0.213 0.214,-1.064 -0.64,0.426 -0.427,-0.426 0.64,0.213 -0.213,-0.639 0.64,0.426 0.213,-1.704 v -0.212 l -0.427,0.425 v -0.639 l -0.213,0.214 -0.213,-0.64 0.64,0.426 0.213,-1.064 v 0.852 l 0.851,-0.426 0.214,-1.064 -0.427,-0.427 h 0.853 l 0.638,-1.703 -0.638,0.852 -0.213,-0.852 h 0.638 v -0.853 l 0.213,0.853 0.853,-1.491 -0.213,-0.426 h 0.427 v 0.64 l 2.555,-1.491 -0.852,-0.214 -0.853,0.64 -0.213,-0.213 0.426,-0.427 -0.213,-0.425 0.853,0.425 0.638,-0.425 0.214,0.425 0.853,-1.277 1.49,-0.852 0.213,-1.703 -0.64,-0.214 v 0.427 l -0.851,-0.427 h 0.851 0.214 l 0.213,-1.49 1.49,-1.278 1.917,-6.176 -0.213,-4.259 1.49,-3.834 0.213,-0.639 0.64,-3.62 -0.64,-0.426 0.64,0.213 -0.213,-0.853 1.703,-3.193 h -0.426 l 0.426,-0.214 0.214,-1.703 -0.64,-0.852 0.217,-2.337 z M 84.082,45.109 83.443,45.535 v -0.81 l 0.639,0.384 z m 176.971,97.963 -0.213,-0.639 0.64,-0.213 -0.213,0.852 h -0.214 z"
     id="path369"
     style="fill:#ffffff;fill-opacity:1;stroke:none" /><polygon
     points="274.258,109.85 275.109,111.341 277.026,105.59 276.599,104.738 276.599,103.248 275.536,104.1 276.386,105.378 274.682,107.295 275.109,107.295 274.682,108.785 "
     id="polygon371"
     style="fill:#ffffff;fill-opacity:1;stroke:none" /><polygon
     points="261.693,94.304 261.267,94.517 261.906,95.369 263.183,96.859 262.97,94.517 262.543,94.942 "
     id="polygon373"
     style="fill:#ffffff;fill-opacity:1;stroke:none" /><polygon
     points="257.859,85.359 257.646,85.999 257.859,86.424 258.498,85.999 "
     id="polygon375"
     style="fill:#ffffff;fill-opacity:1;stroke:none" /><polygon
     points="278.303,123.692 277.666,123.267 277.452,125.609 277.666,125.822 "
     id="polygon377"
     style="fill:#ffffff;fill-opacity:1;stroke:none" /><polygon
     points="277.452,126.674 277.452,127.313 277.608,126.229 277.568,126.215 "
     id="polygon379"
     style="fill:#ffffff;fill-opacity:1;stroke:none" /><polygon
     points="277.608,126.229 277.635,126.035 277.613,126.035 277.568,126.215 "
     id="polygon381"
     style="fill:#ffffff;fill-opacity:1;stroke:none" /><polygon
     points="277.666,125.822 277.613,126.035 277.635,126.035 "
     id="polygon383"
     style="fill:#ffffff;fill-opacity:1;stroke:none" /><polygon
     points="277.878,120.499 277.239,120.924 277.666,123.054 "
     id="polygon385"
     style="fill:#ffffff;fill-opacity:1;stroke:none" /><polygon
     points="260.84,95.582 261.053,94.942 260.414,95.155 "
     id="polygon387"
     style="fill:#ffffff;fill-opacity:1;stroke:none" /><polygon
     points="256.369,81.526 256.793,81.313 256.369,81.1 "
     id="polygon389"
     style="fill:#ffffff;fill-opacity:1;stroke:none" /><polygon
     points="184.92,191.637 185.312,192.246 185.239,192.053 "
     id="polygon431"
     style="fill:#ffffff;fill-opacity:1;stroke:none" /><polygon
     points="172.887,189.499 173.1,188.433 171.608,188.433 172.035,187.156 165.007,188.646 164.581,189.711 165.86,191.202 167.777,190.989 169.267,190.563 170.97,191.415 171.822,190.776 172.035,189.923 174.804,189.923 175.229,189.072 173.738,188.433 "
     id="polygon433"
     style="fill:#ffffff;fill-opacity:1;stroke:none" /><polygon
     points="161.6,182.044 162.453,183.109 162.239,182.47 "
     id="polygon435"
     style="fill:#ffffff;fill-opacity:1;stroke:none" /><polygon
     points="144.776,161.174 145.415,160.536 144.563,160.748 "
     id="polygon437"
     style="fill:#ffffff;fill-opacity:1;stroke:none" /><polygon
     points="213.563,222.082 213.776,224.637 213.776,225.489 214.201,225.915 215.48,224.637 215.267,221.656 214.201,220.804 "
     id="polygon453"
     style="fill:#ffffff;fill-opacity:1;stroke:none" /><polygon
     points="241.887,226.98 243.59,226.34 243.165,225.276 242.738,225.702 243.165,224.637 243.377,224.211 242.525,224.211 240.821,222.082 239.544,223.573 240.397,223.785 240.397,224.637 241.248,225.489 "
     id="polygon455"
     style="fill:#ffffff;fill-opacity:1;stroke:none" /><polygon
     points="234.22,212.499 234.192,212.507 233.793,212.924 "
     id="polygon457"
     style="fill:#ffffff;fill-opacity:1;stroke:none" /><polygon
     points="223.572,211.007 224.637,210.368 223.145,209.729 223.145,210.582 "
     id="polygon459"
     style="fill:#ffffff;fill-opacity:1;stroke:none" /><polygon
     points="232.516,213.776 231.026,213.776 231.666,214.202 "
     id="polygon461"
     style="fill:#ffffff;fill-opacity:1;stroke:none" /><polygon
     points="222.082,211.86 223.572,212.285 223.145,211.22 "
     id="polygon463"
     style="fill:#ffffff;fill-opacity:1;stroke:none" /><polygon
     points="240.397,253.174 240.397,252.322 241.248,253.387 240.821,251.47 239.757,251.683 239.118,250.619 238.693,251.897 239.544,252.109 239.118,252.536 239.757,253.387 "
     id="polygon481"
     style="fill:#ffffff;fill-opacity:1;stroke:none" /><polygon
     points="241.035,249.98 239.97,250.193 240.821,251.47 "
     id="polygon483"
     style="fill:#ffffff;fill-opacity:1;stroke:none" /><polygon
     points="234.006,235.285 232.729,233.794 231.666,234.646 231.876,235.499 231.452,234.433 229.536,234.86 224.637,231.877 223.359,231.877 222.932,230.813 222.932,231.665 222.082,231.452 222.082,231.877 219.1,230.387 219.314,232.09 218.674,233.368 219.525,236.989 221.017,239.119 220.59,239.544 222.721,242.313 222.721,244.229 223.359,243.59 224.424,245.507 224.849,245.507 224.424,246.998 224.211,245.721 222.294,244.016 222.932,247.85 223.572,248.063 224.637,251.257 225.702,251.683 226.766,254.026 227.406,254.026 226.979,253.813 227.406,252.96 227.832,254.239 229.536,254.239 229.322,254.665 227.832,254.239 227.832,254.877 227.406,254.665 228.044,256.369 229.536,255.729 231.876,256.156 231.666,255.517 232.516,257.007 233.793,257.007 234.646,255.729 234.006,255.09 234.86,255.304 235.073,254.452 234.433,254.239 235.286,253.813 234.433,252.749 234.646,252.322 234.646,252.96 235.073,253.387 235.286,252.749 235.286,253.387 236.136,253.813 236.35,251.47 236.99,251.683 236.99,250.406 235.923,248.702 237.414,250.619 237.84,250.406 237.414,251.683 238.267,251.044 238.053,249.98 238.693,249.767 237.627,249.128 238.693,249.34 239.118,250.406 239.97,250.193 241.035,248.276 240.397,247.211 241.248,246.785 241.46,245.082 240.821,245.294 241.887,243.165 242.525,243.165 241.887,242.952 242.738,241.674 242.313,242.952 243.377,243.377 243.377,244.656 243.804,244.016 243.165,242.526 243.377,238.692 242.952,237.415 243.59,235.711 242.952,235.073 243.59,233.368 241.887,231.239 240.821,231.026 240.397,232.304 239.118,231.665 237.627,233.368 236.563,232.729 235.498,233.582 234.646,233.156 233.156,233.794 234.22,234.86 "
     id="polygon485"
     style="fill:#ffffff;fill-opacity:1;stroke:none" /><polygon
     points="236.136,255.09 236.776,255.943 236.776,254.026 237.627,253.387 236.99,251.897 236.35,252.749 237.201,252.96 236.99,253.6 235.71,254.452 235.71,255.516 "
     id="polygon487"
     style="fill:#ffffff;fill-opacity:1;stroke:none" /><polygon
     points="235.498,255.729 235.71,255.517 235.286,255.09 "
     id="polygon489"
     style="fill:#ffffff;fill-opacity:1;stroke:none" /><polygon
     points="235.71,255.517 235.71,255.516 235.71,255.517 "
     id="polygon491"
     style="fill:#ffffff;fill-opacity:1;stroke:none" /><polygon
     points="241.248,228.257 243.377,228.257 243.59,228.897 244.442,228.257 243.59,227.192 "
     id="polygon493"
     style="fill:#ffffff;fill-opacity:1;stroke:none" /><polygon
     points="220.377,230.813 221.655,230.813 221.229,230.387 220.804,229.96 "
     id="polygon495"
     style="fill:#ffffff;fill-opacity:1;stroke:none" /><polygon
     points="241.46,248.063 241.46,248.276 241.46,248.915 242.313,248.063 241.674,247.424 "
     id="polygon497"
     style="fill:#ffffff;fill-opacity:1;stroke:none" /><polygon
     points="219.738,228.044 219.314,228.683 219.314,228.897 219.525,229.749 "
     id="polygon499"
     style="fill:#ffffff;fill-opacity:1;stroke:none" /><polygon
     points="220.59,228.683 221.017,228.044 220.165,228.47 "
     id="polygon501"
     style="fill:#ffffff;fill-opacity:1;stroke:none" /><polygon
     points="241.887,229.109 242.525,229.749 242.952,228.683 "
     id="polygon503"
     style="fill:#ffffff;fill-opacity:1;stroke:none" /><polygon
     points="239.544,225.489 239.757,224.85 239.544,225.276 "
     id="polygon507"
     style="fill:#ffffff;fill-opacity:1;stroke:none" /></g><g
   id="g5391"
   style="fill:#cdc3cc;fill-opacity:1"><polygon
     points="119.099,33.335 118.937,33.254 119.007,33.396 "
     transform="matrix(1.1517917,0,0,1.1517917,-1.5312076,16.077462)"
     id="polygon91-7"
     style="fill:#cdc3cc;fill-opacity:1;stroke:none" /><polygon
     points="94.942,27.646 94.942,28.072 95.369,27.221 94.304,27.221 "
     transform="matrix(1.1517917,0,0,1.1517917,-1.5312076,16.077462)"
     id="polygon93-4"
     style="fill:#cdc3cc;fill-opacity:1;stroke:none" /><polygon
     points="85.785,37.23 85.359,36.377 85.146,37.23 "
     transform="matrix(1.1517917,0,0,1.1517917,-1.5312076,16.077462)"
     id="polygon95-0"
     style="fill:#cdc3cc;fill-opacity:1;stroke:none" /><polygon
     points="84.508,37.017 84.72,36.377 83.869,37.23 84.72,37.23 84.294,37.869 85.146,37.442 "
     transform="matrix(1.1517917,0,0,1.1517917,-1.5312076,16.077462)"
     id="polygon97-9"
     style="fill:#cdc3cc;fill-opacity:1;stroke:none" /><polygon
     points="118.368,32.544 119.221,31.906 118.156,32.118 "
     transform="matrix(1.1517917,0,0,1.1517917,-1.5312076,16.077462)"
     id="polygon99-4"
     style="fill:#cdc3cc;fill-opacity:1;stroke:none" /><polygon
     points="88.98,35.313 88.554,35.1 88.554,35.525 "
     transform="matrix(1.1517917,0,0,1.1517917,-1.5312076,16.077462)"
     id="polygon101-8"
     style="fill:#cdc3cc;fill-opacity:1;stroke:none" /><polygon
     points="110.276,34.674 110.489,34.887 110.063,34.035 "
     transform="matrix(1.1517917,0,0,1.1517917,-1.5312076,16.077462)"
     id="polygon103-8"
     style="fill:#cdc3cc;fill-opacity:1;stroke:none" /><polygon
     points="86.637,34.461 87.063,35.1 87.063,34.674 "
     transform="matrix(1.1517917,0,0,1.1517917,-1.5312076,16.077462)"
     id="polygon105-2"
     style="fill:#cdc3cc;fill-opacity:1;stroke:none" /><polygon
     points="88.128,32.118 88.98,32.118 88.554,30.841 "
     transform="matrix(1.1517917,0,0,1.1517917,-1.5312076,16.077462)"
     id="polygon107-4"
     style="fill:#cdc3cc;fill-opacity:1;stroke:none" /><polygon
     points="83.869,36.59 83.017,36.804 83.656,37.017 "
     transform="matrix(1.1517917,0,0,1.1517917,-1.5312076,16.077462)"
     id="polygon109-5"
     style="fill:#cdc3cc;fill-opacity:1;stroke:none" /><polygon
     points="108.999,36.165 108.572,35.1 108.359,35.525 "
     transform="matrix(1.1517917,0,0,1.1517917,-1.5312076,16.077462)"
     id="polygon111-5"
     style="fill:#cdc3cc;fill-opacity:1;stroke:none" /><polygon
     points="6.989,109.211 6.989,111.341 8.693,114.109 8.693,113.044 "
     transform="matrix(1.1517917,0,0,1.1517917,-1.5312076,16.077462)"
     id="polygon309-5"
     style="fill:#cdc3cc;fill-opacity:1;stroke:none" /><polygon
     points="22.748,75.776 23.387,75.776 23.813,74.285 "
     transform="matrix(1.1517917,0,0,1.1517917,-1.5312076,16.077462)"
     id="polygon311-4"
     style="fill:#cdc3cc;fill-opacity:1;stroke:none" /><path
     d="m 131.38125,56.75625 0.21875,-0.75 -0.46875,-0.25 0,0.25 0.25,0.75 z"
     id="path5269"
     style="fill:#cdc3cc;fill-opacity:1;stroke:none" /><path
     d="m 113.69375,46.19375 0,0.5 -0.96875,-0.25 0.5,1.21875 0.96875,0.5 -0.4375,-0.0625 -1.28125,-0.1875 0.25,0.75 -0.5,0.46875 -0.25,-0.46875 -0.25,1.46875 -0.71875,-1.46875 -0.5,0.25 0.5,-1.25 -1.46875,1 -0.25,0.46875 0.5,0.5 -1,0.5 -0.25,-1.21875 -0.46875,0 0.46875,-0.5 -0.46875,0 0.46875,-0.5 -0.71875,0.5 -0.75,-0.25 0,0.5 -0.21875,-0.5 0,0.5 1.46875,0.71875 -1,0.75 0.25,0.71875 -0.71875,0.5 0.46875,1 -0.96875,0 0,1.21875 -0.75,-0.75 0.25,-0.96875 -0.96875,0.25 0,-0.75 -0.75,1.96875 0.25,-2.21875 0.5,-0.71875 -1,-0.5 0,2.6875 -0.71875,-0.21875 -0.5,0.96875 -0.25,-0.75 -0.5,0.5 0.25,-0.96875 -0.96875,0.96875 0.5,0.25 -1.46875,0.71875 0.71875,1 0.75,0 -1,0.71875 1.46875,0.5 0.25,-0.5 0.5,0.25 -1,1 1.25,0.46875 -1.25,0 -0.46875,-0.71875 -1,0.71875 -0.71875,-1.71875 -0.5,0.25 0.25,1 -1.46875,0.25 0.5,0.21875 -0.25,0.75 1.46875,-0.96875 -1.46875,1.21875 0.46875,0.46875 1.25,-0.71875 0,0.5 0.46875,0 -0.71875,0.71875 1.46875,1.21875 -1.21875,-0.96875 -0.5,0.5 -0.5,-1 -0.96875,-0.25 0,-0.46875 -0.75,0.46875 -0.46875,1 -0.25,-0.5 -0.25,0.75 -0.96875,-0.25 0.21875,0.25 -0.96875,0.71875 0.5,0.25 -0.75,0.25 1,2.6875 0.21875,-0.40625 0,0.15625 0.5,-0.71875 -0.40625,0.40625 0.65625,-1.15625 0.71875,-0.46875 -0.46875,0.46875 0.71875,0 -0.96875,0.75 -0.25,1.71875 0.5,0 -1,0.46875 0.5,0.25 -0.5,0.25 -0.46875,-1.21875 -0.5,2.21875 1.71875,-0.25 0.96875,0.46875 0.5,0.25 1.21875,-0.25 -1.21875,0.5 -0.5,-0.5 -2.1875,0.25 -0.5,-0.46875 -0.5,0.46875 0.4375,0.28125 -1.15625,0.21875 0.71875,-0.25 -0.71875,-0.25 -0.75,-0.96875 -1.71875,-0.75 0.75,0.75 -0.5,0 0.5,0.71875 -1,-0.71875 0,0.25 -1.21875,-0.5 0.5,0 -0.25,-0.5 0.5,0 -1,-0.46875 0,0.46875 -0.71875,-0.25 0.25,0.5 -0.5,-0.5 0.5,0.75 -0.5,0.25 0.96875,0.25 0.25,0.46875 -0.71875,-0.21875 0.71875,0.46875 -0.5,0 -0.21875,0 -0.96875,0 1.21875,0.75 -1.71875,0 0.5,0.71875 0.21875,-0.46875 0.75,0.25 -1,0.71875 1.71875,0.5 0.5,1.46875 0.96875,-0.5 0,-0.5 0.5,0.25 -1.21875,1.25 0.5,0.46875 -0.75,-0.25 1.21875,2.21875 -2.1875,-2.21875 -0.75,0.25 1,1.71875 -0.5,-0.25 -0.5,1.25 0,1.21875 -1.46875,-1.46875 -0.71875,-2.46875 -1,-0.71875 0,-1.96875 -0.71875,0 -0.75,-0.75 0.25,-0.96875 0.71875,-0.25 -0.46875,-0.71875 -0.75,0.21875 -1.46875,2.46875 0.75,0.71875 L 80.6,70.00625 80.35,70.725 l 0.5,1 -1,-0.5 0,0.5 -0.96875,0.21875 -0.75,1 0.5,0.25 -1.21875,0.96875 -0.25,2.21875 0.71875,1.71875 -0.46875,1.71875 1.71875,0.21875 0,1 -3.4375,2.4375 -1,0.25 -0.71875,1 0.5,0.71875 -1.25,0.25 0.25,0.96875 -1.21875,2.21875 -2.9375,3.6875 -6.875,2.9375 -1.71875,0.25 -1.71875,0 -0.71875,0.5 -1,0.71875 -0.71875,-0.71875 -2.21875,-0.5 0.25,0.5 0,0.21875 -0.25,-0.21875 -0.5,-0.25 -0.25,0.25 -1.6875,2.1875 -5.15625,1 0,-0.5 -1.96875,1.21875 0.25,0.5 -0.75,0 -0.5,0.96875 -1.21875,0.25 0,-0.25 -1.96875,1 -1.46875,-0.75 -0.25,-0.71875 -1.6875,0.96875 -0.75,-0.25 -0.5,-0.25 0.75,-1.21875 -0.5,0 -1.21875,1.46875 0.25,0.25 -0.5,0 -2.46875,1.21875 -0.71875,-0.5 -0.25,1.25 -1.96875,0.96875 -0.71875,1.46875 -1.21875,0.25 -1.25,1.96875 -4.65625,1.21875 -1.96875,1.21875 -0.25,1.46875 -0.46875,0.25 -0.5,-0.25 0.25,1 -0.75,1.21875 0.5,0.5 -0.5,-0.25 0.25,0.5 -0.96875,1.21875 -0.5,-0.75 -1.21875,0.75 0.5,-1.71875 -0.5,0.5 -0.25,-1.71875 0.96875,-2.9375 -1.71875,0.46875 -2.4375,5.90625 1.21875,3.1875 -0.46875,1.46875 0.21875,2.9375 -2.4375,3.4375 -0.5,4.40625 1.96875,3.1875 -0.25,0.5 0.5,1.96875 0.96875,0.71875 2.71875,5.40625 0.71875,0.25 0.25,1.21875 -0.75,0 0.25,2.6875 -1.21875,1.46875 -1.21875,-1.9375 -0.25,-2.71875 0,1.25 -1.21875,0.96875 0.25,-2.6875 -1.96875,-3.1875 -0.75,1.9375 0.5,0.5 0,-0.96875 0.71875,3.65625 2.46875,1.96875 -0.25,2.21875 -1.46875,0.71875 -0.25,-1.71875 -0.25,1.5 -0.46875,-2.96875 -0.25,1.46875 -1,-3.90625 0.25,3.1875 -0.71875,-0.5 0,-2.6875 -0.25,1.96875 -1,-0.75 6.375,9.3125 1.5,3.9375 -0.5,1.21875 0.5,2.46875 2.6875,3.1875 0.71875,1.46875 -0.21875,0.96875 2.1875,2.9375 1,3.4375 -0.25,4.4375 0,0.46875 0.71875,3.9375 L 27.6,195.6 l 0.25,3.65625 1.21875,-0.71875 0,0.46875 -1.21875,0.25 0.25,1.25 -0.5,0.71875 0.25,1.71875 -0.96875,1.96875 0.71875,5.625 -2.6875,3.1875 -1.21875,0 -1.46875,-0.96875 0,5.15625 0.96875,2.6875 0.25,-0.5 1.46875,-0.21875 2.6875,1.46875 2.21875,3.4375 2.9375,0.96875 0.25,-0.75 0.96875,0.75 -1.21875,0 1.96875,1.21875 0.75,-0.71875 1.46875,0.71875 3.40625,-0.46875 1.96875,1.21875 0.5,-1 2.21875,0.75 0.46875,-0.25 -1.21875,-0.5 0.5,-0.96875 0.5,-0.25 -0.25,1 1.9375,0 -0.21875,-0.75 1.71875,-0.25 0.21875,-1.46875 2.21875,-0.96875 0.25,-1 1.21875,-0.5 -0.5,-0.46875 3.21875,0.96875 0.21875,-0.96875 1,0.25 0,-1 1.21875,0.25 -0.96875,-0.96875 3.40625,-3.1875 0.75,0 3.1875,0.46875 1.21875,-0.96875 6.15625,-0.75 3.1875,1 1.71875,-0.75 0.96875,1.71875 1.21875,0 0.5,-0.96875 1.71875,0.46875 0.25,-0.71875 3.1875,-0.25 0.71875,0.5 0.25,0.96875 1.71875,-1.21875 1.21875,0.5 3.4375,-3.4375 1,-3.9375 L 93.35,208.1 97.75625,206.63125 106.6,201.475 l 1.96875,-0.5 3.65625,0.5 4.1875,-0.25 7.84375,-2.46875 4.59375,-2.28125 0,-140.9375 a 0.750075,0.75630538 0 0 1 0.15625,-0.5 l -0.84375,0 -0.46875,-0.5 -1,-0.25 -1.46875,0.25 1,0.75 0.25,0.96875 -1,-1.21875 0.75,1.21875 -0.25,-0.25 -0.25,0.5 -0.5,-0.5 -0.25,1 -0.46875,-1.25 -0.5,0.75 1.21875,3.4375 -0.46875,0 -0.25,-1.21875 -1.25,-1.25 0,1.96875 -0.71875,0.75 0.5,-1 -0.5,-0.71875 0.5,-0.25 -0.25,-1.46875 0.71875,-1.71875 -0.46875,0 0.96875,-0.25 -0.5,-0.75 0.5,-0.21875 -1.71875,-1.25 -0.25,0.5 -2.1875,-3.4375 -1.71875,-0.96875 -0.25,-1 -0.75,-0.21875 0.25,0.71875 -0.71875,-0.71875 -0.5,0.46875 0,-0.46875 -0.5,0.46875 -0.5,-1.21875 -1.46875,-0.5 z"
     id="path5267"
     style="fill:#cdc3cc;fill-opacity:1;stroke:none" /><path
     d="m 94.56875,67.6 0.75,0.4375 -0.75,0.5 0,-0.9375 z"
     id="path5265"
     style="fill:#cdc3cc;fill-opacity:1;stroke:none" /></g><path
   d="m 311.06875,166.1625 -0.59375,0.46875 -0.0937,0.0312 -0.71875,0.65625 a 0.750075,0.750075 0 0 1 -0.4375,0.21875 l -1.21875,0.0937 -0.0312,0 -0.4375,0.0625 -0.0312,0.15625 0.125,0.4375 0.1875,-0.0312 a 0.750075,0.750075 0 0 1 0.65625,1.21875 l -0.59375,0.8125 -0.125,0.46875 a 0.750075,0.750075 0 0 1 -0.4375,0.5 l -1.2189,0.5313 a 0.750075,0.750075 0 0 1 -0.5625,0.0312 l -0.875,-0.34375 a 0.750075,0.750075 0 0 1 -0.28125,-0.21875 l -0.125,0.125 -0.65625,0.8125 -0.0625,0.0625 -0.0312,0.0312 -0.25,0.53125 a 0.750075,0.750075 0 0 1 -0.28125,0.3125 l -0.78125,0.5 A 0.750075,0.750075 0 0 1 301.1,173.2875 l -0.53125,-1.21875 A 0.750075,0.750075 0 0 1 300.475,171.85 l -0.0625,-0.65625 -0.3125,-0.5625 -0.0625,-0.0625 -0.40625,-0.5625 a 0.750075,0.750075 0 0 1 -0.0312,0 l -0.59375,-0.78125 -0.84375,-0.1875 -1.875,-0.0312 a 0.750075,0.750075 0 0 1 -0.375,-0.0625 l -0.5625,-0.3125 -0.0937,-0.0625 -0.625,-0.25 -0.65625,0.0937 a 0.750075,0.750075 0 0 1 -0.75,-0.4375 l -0.0312,-0.125 -0.34375,0 -0.0625,0.0625 -1.5625,0.53125 a 0.750075,0.750075 0 0 1 -0.375,0.0312 l -1.53125,-0.25 a 0.750075,0.750075 0 0 1 -0.0625,-0.0312 l -1.4375,-0.4375 -0.0312,0 -0.75,1.0625 a 0.750075,0.750075 0 0 1 -0.65625,0.34375 l -0.53125,-0.0312 -0.0312,0.5 a 0.750075,0.750075 0 0 1 -0.6875,0.71875 l -0.0937,0 a 0.750075,0.750075 0 0 1 -0.375,0.59375 l -1.03125,0.53125 a 0.750075,0.750075 0 0 1 -0.34375,0.0937 l -60.40625,-0.0625 0,50.5625 0.46875,-0.0625 a 0.750075,0.750075 0 0 1 0.4375,0.0625 l 1.71875,0.78125 0.84375,-0.5625 a 0.750075,0.750075 0 0 1 0.5625,-0.15625 l 1.9375,0.375 0.0625,0 2.40625,0.28125 a 0.750075,0.750075 0 0 1 0.375,0.15625 l 2,1.6875 a 0.750075,0.750075 0 0 1 0.25,0.375 l 0.5,2.0625 0.0312,0.0312 a 0.750075,0.750075 0 0 1 0.28125,-0.25 l 1.21875,-0.59375 a 0.750075,0.750075 0 0 1 0.53125,-0.0937 l 1.09375,0.25 1.875,0.15625 a 0.750075,0.750075 0 0 1 0.21875,0.0312 l 1.1875,0.46875 a 0.750075,0.750075 0 0 1 0.4375,0.53125 l 0.65625,3.03125 1.34375,1.90625 0.9375,0.0312 a 0.750075,0.750075 0 0 1 0.3125,0.0937 l 1.84375,0.78125 A 0.750075,0.750075 0 0 1 246.6,233.6 l 2.3125,2.03125 a 0.750075,0.750075 0 0 1 0.21875,0.34375 l 0.34375,1.21875 1.25,0.90625 0.0312,0.0312 1.53125,0.625 0.5,-0.0625 -0.125,-0.96875 a 0.750075,0.750075 0 0 1 0.125,-0.53125 l 0.5625,-0.75 a 0.750075,0.750075 0 0 1 0.5,-0.3125 l 0.8125,-0.125 a 0.750075,0.750075 0 0 1 0.46875,0.0937 l 0.75,0.40625 1.875,-0.28125 a 0.750075,0.750075 0 0 1 0.4375,0.0625 l 1.4375,0.71875 0.84375,-0.15625 a 0.750075,0.750075 0 0 1 0.4375,0.0937 l 1.21875,0.59375 0.0312,0 0.9375,0.15625 0.46875,-0.46875 a 0.750075,0.750075 0 0 1 0.28125,-0.1875 l 1,-0.34375 a 0.750075,0.750075 0 0 1 0.65625,0.0312 l 1.125,0.625 0.0625,0.0625 1.875,0.40625 1.4375,-0.40625 0.0312,0 1.21875,-0.40625 a 0.750075,0.750075 0 0 1 0.15625,-0.0312 l 0.65625,-0.0625 0.0312,-0.0625 0.78125,-0.28125 a 0.750075,0.750075 0 0 1 0.0312,-0.0312 l 1.0625,-0.375 a 0.750075,0.750075 0 0 1 0.5625,0.0625 l 1.65625,0.8125 a 0.750075,0.750075 0 0 1 0.40625,0.78125 l -0.1875,1.15625 0.46875,1.09375 0.0625,0.0937 0.75,1.09375 a 0.750075,0.750075 0 0 1 0.125,0.1875 l 0.40625,1.25 a 0.750075,0.750075 0 0 1 0.0312,0.3125 l -0.125,1.0625 8.8125,4.34375 1.8125,0.15625 a 0.750075,0.750075 0 0 1 0.40625,0.125 l 1.46875,1.09375 a 0.750075,0.750075 0 0 1 0.34375,0.53125 l 0.5625,-0.28125 -0.25,-1.96875 0.5,-0.25 0.5,0 -0.5,-1.21875 -1,-0.25 0.5,-0.96875 -0.5,-1.25 0.5,0.25 0.5,-1.71875 0.96875,-3.90625 -0.25,-2.46875 0.5,-1.46875 -0.5,0 1.25,-0.96875 -0.75,-1 1,0.25 1.9375,-4.65625 1.71875,-0.5 -0.71875,-1.46875 0.71875,-0.25 0,1 0.5,-0.25 -0.5,-1.46875 -0.46875,0.25 0.21875,-0.5 -0.96875,-0.25 1.71875,-0.71875 0.5,-1.71875 -0.5,-0.75 0.71875,-0.25 0,-1.71875 1.96875,-1.9375 -0.71875,-0.25 1.21875,-0.25 -1.46875,-0.5 1.71875,-0.25 0.25,-1.21875 -0.75,0.5 -0.5,-0.5 0.75,0.25 -0.25,-0.75 0.75,0.5 0.25,-1.96875 0,-0.25 -0.5,0.5 0,-0.71875 -0.25,0.21875 -0.25,-0.71875 0.75,0.5 0.25,-1.25 0,1 0.96875,-0.5 0.25,-1.21875 -0.5,-0.5 0.96875,0 0.75,-1.96875 -0.75,1 -0.21875,-1 0.71875,0 0,-0.96875 0.25,0.96875 0.96875,-1.71875 -0.21875,-0.46875 0.46875,0 0,0.71875 2.96875,-1.71875 -1,-0.25 -0.96875,0.75 -0.25,-0.25 0.5,-0.5 -0.25,-0.46875 0.96875,0.46875 0.75,-0.46875 0.25,0.46875 0.96875,-1.46875 1.71875,-0.96875 0.25,-1.96875 -0.75,-0.25 0,0.5 -0.96875,-0.5 0.96875,0 0.25,0 0.25,-1.71875 1.71875,-1.46875 2.1875,-7.09375 -0.21875,-4.90625 1.71875,-4.4375 0.21875,-0.71875 0.75,-4.1875 -0.75,-0.46875 0.75,0.25 -0.25,-1 1.96875,-3.6875 -0.5,0 0.5,-0.21875 0.25,-1.96875 -0.75,-1 0.125,-1.5 a 0.750075,0.750075 0 0 1 -0.125,0 l -0.84375,0.0937 a 0.750075,0.750075 0 0 1 -0.15625,0 l -0.75,-0.0625 -0.3125,0.25 a 0.750075,0.750075 0 0 1 -0.1875,0.125 l -0.59375,0.28125 a 0.750075,0.750075 0 0 1 -0.21875,0.0312 l -0.65625,0.0625 a 0.750075,0.750075 0 0 1 -0.25,-0.0312 l -0.84375,-0.21875 -0.96875,0.4375 a 0.750075,0.750075 0 0 1 -0.8125,-0.1875 l -0.84375,-0.8125 -0.5,-0.15625 z"
   id="path5333"
   style="fill:#cdc3cc;fill-opacity:1;stroke:none" /><g
   id="g5409"
   style="fill:#cdc3cc;fill-opacity:1"><path
     d="m 142.65468,30.503653 2.45217,1.47199 2.45332,-1.47199 0.73599,-1.225506 0.73715,0.24418 V 28.541 l 0.73484,-0.24418 -0.98017,-1.47199 h -0.98248 l -0.24418,-0.735995 -0.736,0.981327 0.49067,1.226658 -0.73485,-1.717321 -0.24533,0.735995 -0.49066,-0.24418 v 1.470838 l -0.24533,-1.226658 h -0.24534 l -0.73599,-0.24418 -1.47199,0.490663 0.98133,1.47199 -0.98133,-0.490663 -0.24533,-1.226659 -0.49067,0.490664 0.24534,0.245331 h -0.24534 v -0.245331 -0.981327 l -1.71732,-0.981326 0.60469,3.221561 -0.84887,0.213081 0.48951,-0.490663 -0.48951,0.245332 0.48951,-0.981327 -0.48951,-0.981326 -1.71732,1.226658 0.98133,0.490663 h -0.49066 v 0.981327 l 0.24418,0.163554 v 0.572441 l -0.24418,-0.735995 -0.24534,0.490663 -0.73599,-0.490663 v 0.981326 h -0.49066 l 4.66014,0.490664 0.24418,-0.738299 z m -1.47199,0 0.18084,-1.081532 0.0645,0.345537 1.2255,0.734843 -1.2255,-0.489511 -0.24534,0.490663 z"
     id="path181-1"
     style="fill:#cdc3cc;fill-opacity:1;stroke:none" /><polygon
     points="166.923,29.35 165.86,29.137 165.86,28.286 166.498,28.072 166.285,27.434 167.35,26.582 166.71,26.155 166.71,26.794 165.86,26.794 165.646,25.942 165.86,25.517 164.793,25.729 165.22,26.369 163.73,26.794 163.73,27.859 163.943,28.711 163.303,29.563 163.943,29.137 165.433,29.989 167.35,29.989 167.137,28.924 "
     transform="matrix(1.1517917,0,0,1.1517917,-1.5312076,16.077462)"
     id="polygon183-7"
     style="fill:#cdc3cc;fill-opacity:1;stroke:none" /><polygon
     points="168.201,40.637 168.415,39.998 167.777,38.72 167.777,39.359 167.137,39.359 167.777,40.211 "
     transform="matrix(1.1517917,0,0,1.1517917,-1.5312076,16.077462)"
     id="polygon187-1"
     style="fill:#cdc3cc;fill-opacity:1;stroke:none" /><polygon
     points="160.536,12.525 159.469,13.804 158.192,14.017 157.979,14.656 159.256,14.229 160.749,12.952 "
     transform="matrix(1.1517917,0,0,1.1517917,-1.5312076,16.077462)"
     id="polygon189-5"
     style="fill:#cdc3cc;fill-opacity:1;stroke:none" /><polygon
     points="162.666,26.794 163.09,25.942 162.239,25.517 161.813,26.582 162.239,26.794 162.239,26.369 "
     transform="matrix(1.1517917,0,0,1.1517917,-1.5312076,16.077462)"
     id="polygon191-2"
     style="fill:#cdc3cc;fill-opacity:1;stroke:none" /><polygon
     points="166.073,39.146 165.86,39.786 166.498,39.786 166.71,39.359 "
     transform="matrix(1.1517917,0,0,1.1517917,-1.5312076,16.077462)"
     id="polygon195-6"
     style="fill:#cdc3cc;fill-opacity:1;stroke:none" /><polygon
     points="138.174,7.415 137.322,7.628 138.174,9.97 138.6,8.693 "
     transform="matrix(1.1517917,0,0,1.1517917,-1.5312076,16.077462)"
     id="polygon197-1"
     style="fill:#cdc3cc;fill-opacity:1;stroke:none" /><polygon
     points="161.6,23.6 162.026,24.877 162.026,24.239 162.453,24.025 "
     transform="matrix(1.1517917,0,0,1.1517917,-1.5312076,16.077462)"
     id="polygon199-4"
     style="fill:#cdc3cc;fill-opacity:1;stroke:none" /><polygon
     points="164.581,38.507 164.369,39.146 165.007,39.146 165.22,38.294 "
     transform="matrix(1.1517917,0,0,1.1517917,-1.5312076,16.077462)"
     id="polygon201-2"
     style="fill:#cdc3cc;fill-opacity:1;stroke:none" /><polygon
     points="143.285,11.674 143.499,12.1 144.137,11.674 "
     transform="matrix(1.1517917,0,0,1.1517917,-1.5312076,16.077462)"
     id="polygon203-3"
     style="fill:#cdc3cc;fill-opacity:1;stroke:none" /><polygon
     points="166.71,38.934 167.137,38.72 166.923,38.294 "
     transform="matrix(1.1517917,0,0,1.1517917,-1.5312076,16.077462)"
     id="polygon205-2"
     style="fill:#cdc3cc;fill-opacity:1;stroke:none" /><polygon
     points="165.22,39.786 165.646,39.998 165.86,39.572 "
     transform="matrix(1.1517917,0,0,1.1517917,-1.5312076,16.077462)"
     id="polygon207-2"
     style="fill:#cdc3cc;fill-opacity:1;stroke:none" /><polygon
     points="160.961,12.313 161.386,11.887 160.961,11.887 "
     transform="matrix(1.1517917,0,0,1.1517917,-1.5312076,16.077462)"
     id="polygon209-1"
     style="fill:#cdc3cc;fill-opacity:1;stroke:none" /><polygon
     points="138.6,11.887 137.749,12.1 138.387,12.313 "
     transform="matrix(1.1517917,0,0,1.1517917,-1.5312076,16.077462)"
     id="polygon211-6"
     style="fill:#cdc3cc;fill-opacity:1;stroke:none" /><polygon
     points="143.499,11.035 143.499,11.248 144.35,11.035 144.137,10.609 "
     transform="matrix(1.1517917,0,0,1.1517917,-1.5312076,16.077462)"
     id="polygon213-8"
     style="fill:#cdc3cc;fill-opacity:1;stroke:none" /><polygon
     points="153.294,14.656 153.721,15.081 153.932,14.869 "
     transform="matrix(1.1517917,0,0,1.1517917,-1.5312076,16.077462)"
     id="polygon215-5"
     style="fill:#cdc3cc;fill-opacity:1;stroke:none" /><polygon
     points="164.156,26.155 164.581,26.369 164.581,25.729 164.156,25.942 "
     transform="matrix(1.1517917,0,0,1.1517917,-1.5312076,16.077462)"
     id="polygon217-7"
     style="fill:#cdc3cc;fill-opacity:1;stroke:none" /><polygon
     points="164.156,10.396 165.646,9.118 166.073,7.628 "
     transform="matrix(1.1517917,0,0,1.1517917,-1.5312076,16.077462)"
     id="polygon239-6"
     style="fill:#cdc3cc;fill-opacity:1;stroke:none" /><path
     d="m 152.94375,25.6 0,0.96875 -1.21875,-0.21875 0.21875,0.46875 -0.46875,0.5 1.21875,-0.25 0.25,0.5 -0.25,0.25 0.96875,0.21875 0.25,0.75 1,-0.5 2.1875,-0.25 0,0.5 0.5,0 -0.5,0.25 0.75,0.25 -0.5,0 0.5,0.25 -0.5,0.25 1.21875,0 0.25,0 -1.21875,1.21875 0.96875,0.71875 -0.46875,0.25 -0.25,1.46875 1.25,0.5 -1.71875,-0.5 -0.75,0.5 -0.25,1.46875 -0.46875,-1.21875 -0.75,0.46875 -0.25,-0.71875 -1.21875,1.21875 -1.21875,-0.71875 -3.4375,0.46875 -1,-0.71875 -0.21875,-1.25 -0.5,1.5 -1.96875,-0.5 0.5,1.71875 -1.25,-0.25 -0.46875,0.5 1.21875,0.96875 -0.96875,-0.25 0.4375,0.78125 -0.4375,0.4375 -0.5,-0.96875 0,0.25 -0.5,0.25 0.25,-1.25 -1.46875,-0.21875 0.25,1.71875 -0.5,0 1.46875,0.71875 -0.71875,0 0,0.5 -1.25,-1.21875 -0.71875,0.21875 0.25,0.5 -0.5,-0.5 0,1.71875 -1.71875,0.5 0,1.71875 1.46875,1.71875 -0.5,-0.25 -1.9375,1.46875 -0.75,-0.25 0,-0.46875 -0.71875,0.46875 -0.25,2.21875 0.46875,-0.25 -0.96875,0.75 0.25,1.21875 -0.75,0.5 -0.46875,-0.5 0.46875,1.21875 -0.46875,-0.5 -0.5,1 -0.25,-0.75 -0.96875,1.71875 0,0.75 0.71875,0.71875 0.5,-0.46875 0,0.71875 0.96875,-0.25 0.25,0.5 1,-0.5 -0.25,0.5 -1.25,0.75 0.75,0 0,0.46875 -0.25,0 0.15625,0.34375 0.1875,0.09375 0.65625,-0.4375 -0.25,0.75 1.71875,-0.96875 0,0.71875 -1,0 0.5,0.5 -0.75,-0.25 -0.46875,0 -1,0 0.5,0.96875 -0.5,-0.46875 0.25,1.71875 -0.71875,0.21875 -0.75,-1.71875 -0.71875,-0.21875 0.21875,1.21875 -0.96875,-1.46875 0.25,0.46875 -0.5,0 -0.25,0 0.5,0.75 -0.5,0.5 0.75,0.25 -0.75,0 -0.25,0.96875 0,-0.75 -0.46875,1 0.46875,-1.21875 -0.21875,-0.25 -0.5,-0.5 0,-0.96875 -0.5,0.71875 0,-0.96875 -0.1875,0 a 0.750075,0.75630538 0 0 1 0.15625,0.5 l 0,94.96875 67.09375,0 0,-83.03125 a 0.750075,0.750075 0 0 1 0.59375,-0.75 L 197.35,65.81875 194.88125,65.1 l -3.1875,-2.21875 -0.71875,0.25 0.25,0.5 -1.25,-0.5 -0.71875,0.25 0,-1 -2.71875,-1.21875 -0.96875,-1.96875 -3.9375,-2.4375 -0.21875,0.25 0,-0.5 -0.75,0.25 -1.21875,-1.21875 -0.5,-1.71875 1.46875,-0.5 1.21875,-2.9375 1.46875,-0.75 0.25,-1.46875 1.25,-2.6875 -1,0.71875 -0.5,-0.25 -0.21875,-2.1875 0.46875,0.25 0.5,-0.5 -0.75,-0.25 0.25,-0.71875 0.75,-0.5 0.25,0.71875 0.71875,-1.46875 0.25,1.25 0.25,-1.25 0.71875,0.25 0.25,-0.71875 0.5,1.21875 -0.5,0.71875 1,-0.46875 0.71875,-1.46875 -0.71875,-0.75 1.46875,0.25 -1.46875,-1.71875 0.46875,0.25 0.25,-0.5 0.5,0.75 -0.25,-1 0.75,0 0.46875,-1.21875 -0.21875,-0.75 0.46875,0 0,0.75 1.46875,-1.71875 -1.46875,-1.46875 -0.71875,0.5 0.46875,0.46875 -0.71875,0 -1,-2.1875 -0.46875,0 0.71875,-1 -2.9375,2.21875 1.71875,0.5 -0.75,1.46875 -0.71875,0.5 -0.96875,-0.25 -0.5,0.46875 0,-0.71875 -0.5,0 0.75,-1.21875 -0.75,0.21875 -0.25,-0.46875 1,-1.25 -1.96875,1 -0.25,0.71875 -0.75,-0.46875 1.96875,-2.21875 -2.6875,1.46875 -0.25,-0.5 -1.21875,0.25 -1.21875,0.75 0.96875,0.5 -1.46875,-0.25 0.5,0.71875 -2.96875,-1.21875 -0.71875,-1.71875 -1,1.21875 L 170.35,32.475 169.63125,33.94375 170.1,32.725 l -0.46875,-1 -0.5,0.25 -0.25,-0.71875 -0.96875,0.71875 -0.75,-0.71875 0.75,-0.75 -1,-0.25 -2.1875,1.21875 0.25,-0.96875 -0.5,0.5 -0.5,-0.75 -0.71875,0.5 0.21875,-0.75 -1.46875,0.25 -1.71875,-2.9375 -0.46875,0 0.21875,0.71875 -0.46875,-0.21875 -1.21875,0.96875 -1.71875,-2.4375 -0.5,0.71875 -0.25,-1.46875 -0.71875,0.5 0.21875,0.71875 -1.21875,-1.21875 0.25,1.46875 0.5,0.25 -0.5,0.71875 -0.5,-1.6875 -0.96875,-0.75 z"
     id="path5299"
     style="fill:#cdc3cc;fill-opacity:1;stroke:none" /></g><path
   d="m 299.63125,179.88125 -0.25,1 -0.21875,0 -0.25,-0.75 0.71875,-0.25 z"
   id="path369-3"
   style="fill:#ffff00;fill-opacity:1;stroke:none" /><g
   id="g5430"
   style="fill:#cdc3cc;fill-opacity:1"><path
     d="m 234.38125,22.1625 -0.96875,0.25 -0.75,1.46875 -1.46875,0.5 0.25,1.21875 -0.75,3.1875 -0.25,0 -0.21875,1.71875 0.71875,0 -0.96875,0.25 -0.25,1.46875 0.5,0.71875 0.46875,-0.46875 -0.46875,0.71875 -0.5,-0.25 -0.25,1 -0.25,-1.71875 -1.21875,1.96875 0.75,0.25 -0.75,0 -0.96875,2.4375 0.71875,0 -0.25,-0.96875 0.75,0.21875 -0.5,0.25 1,0.75 1.21875,0 -1.21875,0.5 1.21875,0.46875 -0.5,0.25 0.25,1.21875 -0.96875,-1.71875 -0.5,1.25 -1.21875,0.96875 0.71875,2.21875 -0.25,0.71875 0.5,-0.25 -0.25,0.25 0.5,0.25 -1,0 -1.21875,3.6875 1.21875,2.6875 -0.71875,2.46875 0.96875,4.40625 -1.46875,3.90625 -0.71875,2.96875 0.46875,1.21875 -1.71875,4.90625 -1.9375,2.4375 -0.5,3.1875 -2.21875,1.71875 -4.15625,1 -0.5,-0.25 -1.46875,-0.96875 -1.71875,-0.25 -0.96875,-1.25 -1.71875,-0.71875 -0.5,-2.21875 -0.96875,-0.96875 -3.1875,-1 -3.9375,-0.46875 -1.34375,-1.8125 0,82.5625 23,0 0.0312,0 a 0.750075,0.750075 0 0 1 0.0625,-0.0312 0.750075,0.750075 0 0 1 0.0312,0 0.750075,0.750075 0 0 1 0.0312,0 0.750075,0.750075 0 0 1 0.0625,0 0.750075,0.750075 0 0 1 0.0312,0.0312 0.750075,0.750075 0 0 1 0.0312,0 0.750075,0.750075 0 0 1 0.0312,0 0.750075,0.750075 0 0 1 0.0312,0 0.750075,0.750075 0 0 1 0.0625,0 0.750075,0.750075 0 0 1 0.0312,0.0312 0.750075,0.750075 0 0 1 0.0312,0 0.750075,0.750075 0 0 1 0.0312,0.0312 0.750075,0.750075 0 0 1 0.0312,0 0.750075,0.750075 0 0 1 0.0312,0.0312 0.750075,0.750075 0 0 1 0.0312,0 0.750075,0.750075 0 0 1 0.0312,0.0625 0.750075,0.750075 0 0 1 0.0312,0 0.750075,0.750075 0 0 1 0.0312,0.0312 0.750075,0.750075 0 0 1 0.0312,0.0625 0.750075,0.750075 0 0 1 0.0312,0 0.750075,0.750075 0 0 1 0.125,0.25 0.750075,0.750075 0 0 1 0.0312,0.0937 0.750075,0.750075 0 0 1 0.0312,0.0625 0.750075,0.750075 0 0 1 0,0.0937 l 0,18.71875 60.21875,0.0937 0.375,-0.1875 0,-0.15625 a 0.750075,0.750075 0 0 1 0.6875,-0.8125 l 0.1875,-0.0312 0.0625,-0.625 a 0.750075,0.750075 0 0 1 0.78125,-0.6875 l 0.875,0.0312 0.625,-0.96875 a 0.750075,0.750075 0 0 1 0.5625,-0.3125 l 0.625,-0.0625 a 0.750075,0.750075 0 0 1 0.3125,0.0312 l 1.4375,0.46875 0.0625,0 1.21875,0.21875 1.4375,-0.53125 a 0.750075,0.750075 0 0 1 0.1875,-0.0312 l 1.03125,-0.0937 a 0.750075,0.750075 0 0 1 0.78125,0.4375 l 0.0312,0.0937 0.28125,-0.0312 a 0.750075,0.750075 0 0 1 0.34375,0.0625 l 0.875,0.34375 a 0.750075,0.750075 0 0 1 0.0625,0.0312 l 0.46875,0.25 1.78125,0.0312 a 0.750075,0.750075 0 0 1 0.125,0.0312 l 1.3125,0.28125 a 0.750075,0.750075 0 0 1 0.4375,0.3125 l 0.71875,0.9375 0,0.0312 0.46875,0.53125 a 0.750075,0.750075 0 0 1 0.0625,0.0625 l 0.5,0.8125 a 0.750075,0.750075 0 0 1 0.125,0.3125 l 0.0625,0.75 0.0937,0.21875 0.1875,-0.34375 a 0.750075,0.750075 0 0 1 0.0625,-0.125 l 0.78125,-0.9375 0.75,-0.90625 a 0.750075,0.750075 0 0 1 1.1875,0.0937 l 0.34375,0.5625 0.34375,0.15625 0.59375,-0.3125 0.0937,-0.25 a 0.750075,0.750075 0 0 1 0.0625,-0.15625 0.750075,0.750075 0 0 1 0,-0.0312 0.750075,0.750075 0 0 1 -0.15625,-0.28125 l -0.3125,-1.21875 a 0.750075,0.750075 0 0 1 -0.0312,-0.3125 l 0.125,-0.875 a 0.750075,0.750075 0 0 1 0.65625,-0.59375 l 1.03125,-0.125 1.0625,-0.0937 0.53125,-0.53125 a 0.750075,0.750075 0 0 1 0.0625,-0.0625 l 1,-0.71875 a 0.750075,0.750075 0 0 1 0.40625,-0.15625 0.750075,0.750075 0 0 1 0.25,0.0312 l 1.09375,0.3125 a 0.750075,0.750075 0 0 1 0.3125,0.1875 l 0.59375,0.59375 0.71875,-0.3125 a 0.750075,0.750075 0 0 1 0.5,-0.0312 l 1,0.25 0.28125,-0.0312 0.34375,-0.125 0.1875,-0.0937 0.40625,-0.375 a 0.750075,0.750075 0 0 1 0.5625,-0.15625 l 0.875,0.0937 0.15625,0 0.6875,-0.0625 a 0.750075,0.750075 0 0 1 0.0625,-0.0312 l -0.625,-0.65625 -0.71875,-2.9375 -0.5,-2.21875 -0.75,-0.96875 -0.75,0.46875 0.5,-0.71875 -0.96875,-0.5 0.71875,-0.75 -0.71765,-0.7184 0.96875,-0.5 -0.71875,-0.71875 0,-0.75 1.21875,1.46875 -0.75,-2.21875 -0.25,0.75 0.5,-1.96875 L 315.6,151.6 l 0.21875,-2.125 -0.46875,0 0.96875,-3.9375 -0.5,0 -0.46875,-0.96875 -0.5,1.46875 0.25,-1.21875 -0.75,0 0.5,-0.5 -1,-0.75 0,-1.46875 0.75,-0.71875 -1.46875,0.46875 1.21875,-0.46875 -0.25,-1.25 -2.6875,-0.71875 0.71875,-0.5 -1.46875,-1.71875 0.25,-0.96875 -0.71875,-0.5 -0.25,0.5 0.25,-0.75 -1.46875,-0.71875 0,0.25 -1.25,-1.25 -1.21875,-3.1875 -0.96875,-0.25 0.25,-0.96875 -0.5,0.75 0,-0.75 -0.75,-0.25 0.5,1 -0.96875,-0.5 0,0.5 -1,-0.5 0,0.5 -3.1875,-4.4375 -0.71875,1 -1,-1.46875 0.5,-0.25 -0.75,-1.46875 0.5,-0.5 -0.75,-2.6875 0.5,0 0.25,-1.96875 -0.5,-1.21875 0,0.71875 -0.46875,-0.21875 -0.5,-1 0.71875,0.25 0.25,-0.25 -0.71875,-1.21875 0,0.96875 -0.25,-0.96875 -0.5,-0.25 -0.25,0.75 0.75,1.21875 -0.5,-0.25 0.5,1.21875 -3.4375,-2.4375 -1.21875,-1.96875 -0.25,0.5 -0.75,1.21875 0.75,1.71875 0.5,0.96875 -0.5,-0.46875 -1.46875,-1.71875 -1.46875,1.71875 0.71875,-1.71875 -0.96875,0 0.5,-0.25 -0.25,-0.5 -1,0.25 1,-0.5 -1.46875,-3.4375 0.46875,-2.6875 -0.21875,0.5 -1,-1 -0.25,0.5 0,-2.21875 -0.96875,0.5 0.25,-0.75 -0.25,0 0.5,-1.21875 -1,-0.96875 -0.71875,0.5 0.21875,-1 -1.71875,0 -0.21875,-0.71875 0.46875,-0.25 -1.21875,-0.75 0.25,-0.5 -0.75,-0.71875 0.75,-0.25 -0.5,-0.5 0.75,0.25 0.25,-0.5 1.21875,1 -1.46875,-2.46875 -0.5,0.25 0,-0.71875 -0.71875,0 -0.25,-1 -0.75,0 -0.25,0 0,1 -0.71875,-0.25 -1,-1 0.25,-0.21875 0,-0.25 -1.21875,-0.75 -1.46875,0.25 -0.5,-1.71875 -0.71875,0 0.46875,1.21875 -0.96875,-0.25 -1.46875,-1.46875 0.96875,0.5 -1.46875,-3.1875 0,0.96875 -2.21875,0.25 -0.96875,-2.1875 -0.25,0.96875 -0.71875,0 -0.75,-0.96875 -2.4375,-1 L 263.1,86.9125 263.56875,84.225 262.6,84.225 260.88125,81.2875 262.1,77.1 l -0.5,0 0,-1.9375 -1.46875,-2.71875 0.5,-1.21875 -1.21875,0.25 -2.9375,-3.9375 0,-1.21875 0.46875,0 0,-1.71875 -0.96875,-1.21875 -0.25,-2.71875 -0.96875,-0.96875 1.21875,-1.46875 0,-0.25 -0.75,0.25 -0.25,-1.21875 1,-1.25 -0.5,0 -0.5,-0.96875 -1.46875,-0.25 -0.96875,-1.46875 -1.71875,-0.5 -1.21875,-3.1875 -1.46875,1.25 -1,-0.5 -0.46875,1.46875 -1.5,0.75 -1.21875,-1 -0.71875,-3.1875 -1.25,-1.96875 0.5,-2.4375 -0.71875,-2.46875 0.21875,-2.1875 -1.46875,0.46875 0.75,-2.1875 -1.46875,-1 0,-0.96875 -1.21875,-0.25 -0.25,-1.71875 1.46875,-1.21875 -1.21875,-0.5 -1,0.25 -0.71875,-0.71875 0,-3.6875 -1,-2.9375 -0.71875,0 -0.5,-1 0,0.5 -0.96875,0.5 1.21875,-1.96875 -0.25,-0.25 -0.25,-0.25 z"
     id="path5335"
     style="fill:#cdc3cc;fill-opacity:1;stroke:none" /><g
     id="g5351"
     style="fill:#cdc3cc;fill-opacity:1"><polygon
       points="182.045,45.961 183.109,46.6 183.536,45.961 184.173,46.174 184.813,44.896 185.026,45.535 185.876,45.322 184.813,44.258 183.109,44.896 "
       transform="matrix(1.1517917,0,0,1.1517917,-1.5312076,16.077462)"
       id="polygon185-1"
       style="fill:#cdc3cc;fill-opacity:1;stroke:none" /><polygon
       points="183.961,49.582 185.026,49.155 184.599,48.517 183.749,49.155 "
       transform="matrix(1.1517917,0,0,1.1517917,-1.5312076,16.077462)"
       id="polygon193-7"
       style="fill:#cdc3cc;fill-opacity:1;stroke:none" /><polygon
       points="229.961,57.248 229.322,56.822 229.536,57.674 228.469,57.248 229.322,58.1 229.322,58.952 230.173,58.952 "
       transform="matrix(1.1517917,0,0,1.1517917,-1.5312076,16.077462)"
       id="polygon277-1"
       style="fill:#cdc3cc;fill-opacity:1;stroke:none" /><polygon
       points="202.489,4.646 201.849,5.286 202.489,5.924 203.128,5.498 "
       transform="matrix(1.1517917,0,0,1.1517917,-1.5312076,16.077462)"
       id="polygon279-8"
       style="fill:#cdc3cc;fill-opacity:1;stroke:none" /><polygon
       points="202.489,2.09 203.128,2.517 203.552,1.877 202.915,1.452 202.489,1.877 "
       transform="matrix(1.1517917,0,0,1.1517917,-1.5312076,16.077462)"
       id="polygon281-9"
       style="fill:#cdc3cc;fill-opacity:1;stroke:none" /><polygon
       points="231.666,60.869 232.516,60.869 231.876,60.23 "
       transform="matrix(1.1517917,0,0,1.1517917,-1.5312076,16.077462)"
       id="polygon283-2"
       style="fill:#cdc3cc;fill-opacity:1;stroke:none" /><polygon
       points="201.849,1.452 201.849,1.665 202.276,1.877 202.489,1.025 "
       transform="matrix(1.1517917,0,0,1.1517917,-1.5312076,16.077462)"
       id="polygon285-7"
       style="fill:#cdc3cc;fill-opacity:1;stroke:none" /><polygon
       points="233.156,63.424 233.581,63.851 233.793,63.424 "
       transform="matrix(1.1517917,0,0,1.1517917,-1.5312076,16.077462)"
       id="polygon287-9"
       style="fill:#cdc3cc;fill-opacity:1;stroke:none" /><polygon
       points="247.637,70.665 247.424,71.73 248.489,71.73 248.062,71.304 "
       transform="matrix(1.1517917,0,0,1.1517917,-1.5312076,16.077462)"
       id="polygon351-3"
       style="fill:#cdc3cc;fill-opacity:1;stroke:none" /><polygon
       points="254.026,84.294 253.813,84.934 253.813,85.146 254.026,85.572 "
       transform="matrix(1.1517917,0,0,1.1517917,-1.5312076,16.077462)"
       id="polygon353-1"
       style="fill:#cdc3cc;fill-opacity:1;stroke:none" /><polygon
       points="247.637,70.665 247.849,70.026 247.211,70.665 "
       transform="matrix(1.1517917,0,0,1.1517917,-1.5312076,16.077462)"
       id="polygon355-2"
       style="fill:#cdc3cc;fill-opacity:1;stroke:none" /><polygon
       points="274.258,109.85 275.109,111.341 277.026,105.59 276.599,104.738 276.599,103.248 275.536,104.1 276.386,105.378 274.682,107.295 275.109,107.295 274.682,108.785 "
       transform="matrix(1.1517917,0,0,1.1517917,-1.5312076,16.077462)"
       id="polygon371-3"
       style="fill:#cdc3cc;fill-opacity:1;stroke:none" /><polygon
       points="262.97,94.517 262.543,94.942 261.693,94.304 261.267,94.517 261.906,95.369 263.183,96.859 "
       transform="matrix(1.1517917,0,0,1.1517917,-1.5312076,16.077462)"
       id="polygon373-4"
       style="fill:#cdc3cc;fill-opacity:1;stroke:none" /><polygon
       points="257.859,86.424 258.498,85.999 257.859,85.359 257.646,85.999 "
       transform="matrix(1.1517917,0,0,1.1517917,-1.5312076,16.077462)"
       id="polygon375-1"
       style="fill:#cdc3cc;fill-opacity:1;stroke:none" /><polygon
       points="277.452,125.609 277.666,125.822 278.303,123.692 277.666,123.267 "
       transform="matrix(1.1517917,0,0,1.1517917,-1.5312076,16.077462)"
       id="polygon377-1"
       style="fill:#cdc3cc;fill-opacity:1;stroke:none" /><polygon
       points="277.608,126.229 277.568,126.215 277.452,126.674 277.452,127.313 "
       transform="matrix(1.1517917,0,0,1.1517917,-1.5312076,16.077462)"
       id="polygon379-3"
       style="fill:#cdc3cc;fill-opacity:1;stroke:none" /><polygon
       points="277.613,126.035 277.568,126.215 277.608,126.229 277.635,126.035 "
       transform="matrix(1.1517917,0,0,1.1517917,-1.5312076,16.077462)"
       id="polygon381-8"
       style="fill:#cdc3cc;fill-opacity:1;stroke:none" /><polygon
       points="277.613,126.035 277.635,126.035 277.666,125.822 "
       transform="matrix(1.1517917,0,0,1.1517917,-1.5312076,16.077462)"
       id="polygon383-7"
       style="fill:#cdc3cc;fill-opacity:1;stroke:none" /><polygon
       points="277.239,120.924 277.666,123.054 277.878,120.499 "
       transform="matrix(1.1517917,0,0,1.1517917,-1.5312076,16.077462)"
       id="polygon385-4"
       style="fill:#cdc3cc;fill-opacity:1;stroke:none" /><polygon
       points="261.053,94.942 260.414,95.155 260.84,95.582 "
       transform="matrix(1.1517917,0,0,1.1517917,-1.5312076,16.077462)"
       id="polygon387-2"
       style="fill:#cdc3cc;fill-opacity:1;stroke:none" /><polygon
       points="256.793,81.313 256.369,81.1 256.369,81.526 "
       transform="matrix(1.1517917,0,0,1.1517917,-1.5312076,16.077462)"
       id="polygon389-7"
       style="fill:#cdc3cc;fill-opacity:1;stroke:none" /></g></g><g
   id="g5337"
   style="fill:#cdc3cc;fill-opacity:1"><path
     d="m 130.35,152.00625 0,43.78125 7.40625,-0.6875 1.21875,-0.25 4.90625,0.5 2.6875,-1.5 4.65625,2.46875 3.4375,2.6875 2.21875,0 -0.25,-0.46875 0.5,-0.25 1.71875,0 2.9375,2.4375 2.9375,0 -0.71875,-0.71875 0.46875,-0.25 0.5,0.5 0.5,-0.75 2.6875,2.6875 -0.75,0.25 0,1.21875 1.5,-0.71875 0.96875,0.25 0.96875,1.9375 -0.71875,1 0.25,-0.75 -1.25,0 0.5,1 -0.5,0.71875 1,0.25 -0.5,0.75 1.46875,1.46875 -0.5,-1.46875 0.75,1.46875 0.75,-0.5 1.46875,1 -0.75,-0.75 1.21875,0.25 -0.46875,0.5 1.46875,1.9375 0,1.46875 2.6875,2.46875 1.46875,6.625 0.25,-0.75 0.25,0.75 0.5,0.25 -1,0.25 -0.5,-1 0.25,-0.25 -0.96875,-0.25 0,-0.46875 -0.75,1.46875 1,-0.5 2.9375,3.6875 1.21875,-0.75 1.21875,1.46875 0.5,-2.6875 -1.71875,0.75 0.75,-0.5 0.25,-1.96875 0.96875,-0.5 0.5,0.5 0,-1.71875 3.65625,-4.15625 2.96875,-1.46875 -0.75,0.21875 0.5,-0.96875 0.5,0.5 1.6875,-0.5 1.71875,-4.90625 1.46875,-1.71875 1,0.5 0,-4.90625 1.21875,2.6875 0.25,2.21875 0.75,0.71875 -1.96875,1.71875 1.46875,2.71875 -2.9375,2.9375 -0.75,2.1875 -0.5,0.25 0.5,1.46875 -0.75,1.5 0.5,-0.25 0.25,1.46875 -0.5,2.9375 -0.46875,0.5 -2.96875,-0.75 -1.21875,3.6875 2.46875,-0.25 1.9375,-1.46875 1.71875,0.71875 1,-0.46875 -0.5,-0.5 1.21875,-2.6875 0.25,-2.46875 1.46875,-3.4375 3.4375,5.96875 0.25,0.40625 -0.5,0.25 -0.25,-0.71875 -0.21875,5.375 -2.71875,2.46875 3.4375,0.25 1.46875,-1.21875 1.21875,0.21875 3.6875,2.9375 -3.6875,-2.6875 3.1875,2.46875 2.09375,2.6875 -1.59375,-2.4375 1.21875,0.96875 1.5,3.1875 -0.65625,-1 1.875,4.9375 -0.25,1.21875 -1.21875,1.21875 0.96875,1.46875 -0.5,0.75 1.96875,2.6875 2.84375,3.8125 0.0937,0.34375 1.5,1.25 2.3125,0.15625 a 0.750075,0.750075 0 0 1 -0.125,-0.40625 l 0,-102.9375 -91.03125,0 z"
     id="path5271"
     style="fill:#cdc3cc;fill-opacity:1;stroke:none" /><polygon
     points="185.312,192.246 185.239,192.053 184.92,191.637 "
     transform="matrix(1.1517917,0,0,1.1517917,-1.5312076,16.077462)"
     id="polygon431-7"
     style="fill:#cdc3cc;fill-opacity:1;stroke:none" /><polygon
     points="171.822,190.776 172.035,189.923 174.804,189.923 175.229,189.072 173.738,188.433 172.887,189.499 173.1,188.433 171.608,188.433 172.035,187.156 165.007,188.646 164.581,189.711 165.86,191.202 167.777,190.989 169.267,190.563 170.97,191.415 "
     transform="matrix(1.1517917,0,0,1.1517917,-1.5312076,16.077462)"
     id="polygon433-9"
     style="fill:#cdc3cc;fill-opacity:1;stroke:none" /><polygon
     points="162.453,183.109 162.239,182.47 161.6,182.044 "
     transform="matrix(1.1517917,0,0,1.1517917,-1.5312076,16.077462)"
     id="polygon435-3"
     style="fill:#cdc3cc;fill-opacity:1;stroke:none" /><polygon
     points="145.415,160.536 144.563,160.748 144.776,161.174 "
     transform="matrix(1.1517917,0,0,1.1517917,-1.5312076,16.077462)"
     id="polygon437-1"
     style="fill:#cdc3cc;fill-opacity:1;stroke:none" /></g><g
   id="g5344"
   style="fill:#cdc3cc;fill-opacity:1"><path
     d="m 223.38125,223.50625 -0.5,0.0625 0,31.375 a 0.750075,0.750075 0 0 1 -0.0625,0.34375 0.750075,0.750075 0 0 1 -0.0312,0.0312 0.750075,0.750075 0 0 1 -0.0625,0.0625 0.750075,0.750075 0 0 1 -0.0625,0.0937 l 2.65625,2.15625 0,1.21875 0.71875,-0.21875 0.75,0.46875 1.46875,-1.71875 2.9375,1.46875 1.96875,-0.46875 9.0625,4.90625 3.6875,-3.6875 2.9375,-1.96875 1.71875,0 0.5,-1.46875 -1.71875,0.5 -0.96875,-0.75 1.21875,0 3.1875,-2.4375 1.46875,2.9375 -1.46875,1.96875 -2.21875,-0.5 2.21875,1.96875 1.46875,-1 0.75,0.25 0.21875,-1.9375 1.71875,0 0.5,1.46875 -0.96875,0.21875 -0.25,1.5 1.71875,1.21875 1.71875,-0.25 0.21875,0.5 -0.71875,-0.25 1.21875,2.1875 1,-0.71875 0.96875,0.5 -0.25,-0.75 1,1.96875 1.21875,1.21875 0.46875,-3.1875 -1.46875,0.96875 -0.46875,-1.9375 2.4375,0 2.90625,-1 4.71875,-4.90625 3.1875,-1.96875 -3.9375,1.71875 2.21875,-1.46875 -0.0937,-0.0625 -0.65625,-0.65625 1.71875,0.46875 1.96875,-0.71875 -0.25,0.5 10.78125,-1 1.9375,-1.71875 a 0.750075,0.750075 0 0 1 -0.0625,-0.0312 l -1.25,-0.9375 -1.8125,-0.15625 a 0.750075,0.750075 0 0 1 -0.25,-0.0625 l -9.4375,-4.6875 a 0.750075,0.750075 0 0 1 -0.40625,-0.75 l 0.15625,-1.40625 -0.25,-0.84375 -0.8125,-1.1875 a 0.750075,0.750075 0 0 1 -0.0937,-0.15625 l -0.625,-1.40625 a 0.750075,0.750075 0 0 1 -0.0312,-0.4375 l 0.125,-0.8125 -0.90625,-0.4375 -0.6875,0.25 -0.0312,0 -0.78125,0.3125 a 0.750075,0.750075 0 0 1 -0.1875,0.0937 l -0.71875,0.0937 -1.25,0.40625 -1.6875,0.46875 a 0.750075,0.750075 0 0 1 -0.375,0 l -2.25,-0.5 a 0.750075,0.750075 0 0 1 -0.21875,-0.125 l -0.875,-0.5 -0.53125,0.1875 -0.65625,0.6875 a 0.750075,0.750075 0 0 1 -0.6875,0.15625 l -1.3125,-0.21875 a 0.750075,0.750075 0 0 1 -0.1875,-0.0625 l -1.1875,-0.53125 -0.875,0.0937 a 0.750075,0.750075 0 0 1 -0.46875,-0.0625 l -1.40625,-0.71875 -1.90625,0.28125 a 0.750075,0.750075 0 0 1 -0.46875,-0.0625 l -0.6875,-0.40625 -0.34375,0.0312 -0.1875,0.21875 0.21875,1.40625 a 0.750075,0.750075 0 0 1 -0.625,0.875 l -1.5,0.21875 a 0.750075,0.750075 0 0 1 -0.40625,-0.0312 L 250.0065,239.4123 A 0.750075,0.750075 0 0 1 249.85,239.35 l -1.46875,-1.09375 a 0.750075,0.750075 0 0 1 -0.25,-0.375 l -0.375,-1.28125 -2.125,-1.875 -0.0312,-0.0312 -1.5,-0.59375 -1.15625,-0.0312 a 0.750075,0.750075 0 0 1 -0.625,-0.34375 l -1.65625,-2.34375 A 0.750075,0.750075 0 0 1 240.56875,231.1 l -0.65625,-2.78125 -0.6875,-0.28125 -1.84375,-0.125 a 0.750075,0.750075 0 0 1 -0.0937,0 l -0.875,-0.21875 -0.5625,0.3125 -0.0312,0.65625 a 0.750075,0.750075 0 0 1 -1.28125,0.5 l -1.25,-1.125 a 0.750075,0.750075 0 0 1 -0.21875,-0.34375 l -0.5,-2.0625 -1.6875,-1.40625 -2.1875,-0.25 a 0.750075,0.750075 0 0 1 -0.0312,0 l -1.71875,-0.28125 -0.9375,0.65625 a 0.750075,0.750075 0 0 1 -0.75,0.0625 l -1.875,-0.90625 z"
     id="path5327"
     style="fill:#cdc3cc;fill-opacity:1;stroke:none" /><polygon
     points="234.192,212.507 233.793,212.924 234.22,212.499 "
     transform="matrix(1.1517917,0,0,1.1517917,-1.5312076,16.077462)"
     id="polygon457-6"
     style="fill:#cdc3cc;fill-opacity:1;stroke:none" /><polygon
     points="223.145,209.729 223.145,210.582 223.572,211.007 224.637,210.368 "
     transform="matrix(1.1517917,0,0,1.1517917,-1.5312076,16.077462)"
     id="polygon459-5"
     style="fill:#cdc3cc;fill-opacity:1;stroke:none" /><polygon
     points="231.026,213.776 231.666,214.202 232.516,213.776 "
     transform="matrix(1.1517917,0,0,1.1517917,-1.5312076,16.077462)"
     id="polygon461-0"
     style="fill:#cdc3cc;fill-opacity:1;stroke:none" /><polygon
     points="223.572,212.285 223.145,211.22 222.082,211.86 "
     transform="matrix(1.1517917,0,0,1.1517917,-1.5312076,16.077462)"
     id="polygon463-2"
     style="fill:#cdc3cc;fill-opacity:1;stroke:none" /></g><g
   id="g5374"
   style="fill:#cdc3cc;fill-opacity:1"><polygon
     points="214.201,225.915 215.48,224.637 215.267,221.656 214.201,220.804 213.563,222.082 213.776,224.637 213.776,225.489 "
     transform="matrix(1.1517917,0,0,1.1517917,-1.5312076,16.077462)"
     id="polygon453-9"
     style="fill:#cdc3cc;fill-opacity:1;stroke:none" /><polygon
     points="240.397,224.637 241.248,225.489 241.887,226.98 243.59,226.34 243.165,225.276 242.738,225.702 243.165,224.637 243.377,224.211 242.525,224.211 240.821,222.082 239.544,223.573 240.397,223.785 "
     transform="matrix(1.1517917,0,0,1.1517917,-1.5312076,16.077462)"
     id="polygon455-8"
     style="fill:#cdc3cc;fill-opacity:1;stroke:none" /><polygon
     points="240.397,253.174 240.397,252.322 241.248,253.387 240.821,251.47 239.757,251.683 239.118,250.619 238.693,251.897 239.544,252.109 239.118,252.536 239.757,253.387 "
     transform="matrix(1.1517917,0,0,1.1517917,-1.5312076,16.077462)"
     id="polygon481-8"
     style="fill:#cdc3cc;fill-opacity:1;stroke:none" /><polygon
     points="239.97,250.193 240.821,251.47 241.035,249.98 "
     transform="matrix(1.1517917,0,0,1.1517917,-1.5312076,16.077462)"
     id="polygon483-6"
     style="fill:#cdc3cc;fill-opacity:1;stroke:none" /><polygon
     points="222.082,231.452 222.082,231.877 219.1,230.387 219.314,232.09 218.674,233.368 219.525,236.989 221.017,239.119 220.59,239.544 222.721,242.313 222.721,244.229 223.359,243.59 224.424,245.507 224.849,245.507 224.424,246.998 224.211,245.721 222.294,244.016 222.932,247.85 223.572,248.063 224.637,251.257 225.702,251.683 226.766,254.026 227.406,254.026 226.979,253.813 227.406,252.96 227.832,254.239 229.536,254.239 229.322,254.665 227.832,254.239 227.832,254.877 227.406,254.665 228.044,256.369 229.536,255.729 231.876,256.156 231.666,255.517 232.516,257.007 233.793,257.007 234.646,255.729 234.006,255.09 234.86,255.304 235.073,254.452 234.433,254.239 235.286,253.813 234.433,252.749 234.646,252.322 234.646,252.96 235.073,253.387 235.286,252.749 235.286,253.387 236.136,253.813 236.35,251.47 236.99,251.683 236.99,250.406 235.923,248.702 237.414,250.619 237.84,250.406 237.414,251.683 238.267,251.044 238.053,249.98 238.693,249.767 237.627,249.128 238.693,249.34 239.118,250.406 239.97,250.193 241.035,248.276 240.397,247.211 241.248,246.785 241.46,245.082 240.821,245.294 241.887,243.165 242.525,243.165 241.887,242.952 242.738,241.674 242.313,242.952 243.377,243.377 243.377,244.656 243.804,244.016 243.165,242.526 243.377,238.692 242.952,237.415 243.59,235.711 242.952,235.073 243.59,233.368 241.887,231.239 240.821,231.026 240.397,232.304 239.118,231.665 237.627,233.368 236.563,232.729 235.498,233.582 234.646,233.156 233.156,233.794 234.22,234.86 234.006,235.285 232.729,233.794 231.666,234.646 231.876,235.499 231.452,234.433 229.536,234.86 224.637,231.877 223.359,231.877 222.932,230.813 222.932,231.665 "
     transform="matrix(1.1517917,0,0,1.1517917,-1.5312076,16.077462)"
     id="polygon485-0"
     style="fill:#cdc3cc;fill-opacity:1;stroke:none" /><polygon
     points="236.136,255.09 236.776,255.943 236.776,254.026 237.627,253.387 236.99,251.897 236.35,252.749 237.201,252.96 236.99,253.6 235.71,254.452 235.71,255.516 "
     transform="matrix(1.1517917,0,0,1.1517917,-1.5312076,16.077462)"
     id="polygon487-2"
     style="fill:#cdc3cc;fill-opacity:1;stroke:none" /><polygon
     points="235.71,255.517 235.286,255.09 235.498,255.729 "
     transform="matrix(1.1517917,0,0,1.1517917,-1.5312076,16.077462)"
     id="polygon489-4"
     style="fill:#cdc3cc;fill-opacity:1;stroke:none" /><polygon
     points="235.71,255.516 235.71,255.517 235.71,255.517 "
     transform="matrix(1.1517917,0,0,1.1517917,-1.5312076,16.077462)"
     id="polygon491-8"
     style="fill:#cdc3cc;fill-opacity:1;stroke:none" /><polygon
     points="241.248,228.257 243.377,228.257 243.59,228.897 244.442,228.257 243.59,227.192 "
     transform="matrix(1.1517917,0,0,1.1517917,-1.5312076,16.077462)"
     id="polygon493-6"
     style="fill:#cdc3cc;fill-opacity:1;stroke:none" /><polygon
     points="221.229,230.387 220.804,229.96 220.377,230.813 221.655,230.813 "
     transform="matrix(1.1517917,0,0,1.1517917,-1.5312076,16.077462)"
     id="polygon495-5"
     style="fill:#cdc3cc;fill-opacity:1;stroke:none" /><polygon
     points="241.46,248.063 241.46,248.276 241.46,248.915 242.313,248.063 241.674,247.424 "
     transform="matrix(1.1517917,0,0,1.1517917,-1.5312076,16.077462)"
     id="polygon497-0"
     style="fill:#cdc3cc;fill-opacity:1;stroke:none" /><polygon
     points="219.314,228.897 219.525,229.749 219.738,228.044 219.314,228.683 "
     transform="matrix(1.1517917,0,0,1.1517917,-1.5312076,16.077462)"
     id="polygon499-9"
     style="fill:#cdc3cc;fill-opacity:1;stroke:none" /><polygon
     points="221.017,228.044 220.165,228.47 220.59,228.683 "
     transform="matrix(1.1517917,0,0,1.1517917,-1.5312076,16.077462)"
     id="polygon501-0"
     style="fill:#cdc3cc;fill-opacity:1;stroke:none" /><polygon
     points="242.525,229.749 242.952,228.683 241.887,229.109 "
     transform="matrix(1.1517917,0,0,1.1517917,-1.5312076,16.077462)"
     id="polygon503-0"
     style="fill:#cdc3cc;fill-opacity:1;stroke:none" /><polygon
     points="239.757,224.85 239.544,225.276 239.544,225.489 "
     transform="matrix(1.1517917,0,0,1.1517917,-1.5312076,16.077462)"
     id="polygon507-6"
     style="fill:#cdc3cc;fill-opacity:1;stroke:none" /></g></svg>