<?xml version="1.0" encoding="UTF-8" standalone="no"?>
<!-- Created with Inkscape (http://www.inkscape.org/) -->

<svg
   xmlns:dc="http://purl.org/dc/elements/1.1/"
   xmlns:cc="http://creativecommons.org/ns#"
   xmlns:rdf="http://www.w3.org/1999/02/22-rdf-syntax-ns#"
   xmlns:svg="http://www.w3.org/2000/svg"
   xmlns="http://www.w3.org/2000/svg"
   version="1.1"
   width="96.874397"
   height="84.156303"
   id="svg4187">
  <defs
     id="defs4189" />
  <metadata
     id="metadata4192">
    <rdf:RDF>
      <cc:Work
         rdf:about="">
        <dc:format>image/svg+xml</dc:format>
        <dc:type
           rdf:resource="http://purl.org/dc/dcmitype/StillImage" />
        <dc:title></dc:title>
      </cc:Work>
    </rdf:RDF>
  </metadata>
  <g
     transform="translate(-326.5628,-490.28403)"
     id="layer1">
    <path
       d="m 414.74995,490.28423 -0.59375,0.46875 -0.0937,0.0312 -0.71875,0.65625 a 0.750075,0.750075 0 0 1 -0.4375,0.21875 l -1.21875,0.0937 -0.0312,0 -0.4375,0.0625 -0.0312,0.15625 0.125,0.4375 0.1875,-0.0312 a 0.750075,0.750075 0 0 1 0.65625,1.21875 l -0.59375,0.8125 -0.125,0.46875 a 0.750075,0.750075 0 0 1 -0.4375,0.5 l -1.2189,0.5313 a 0.750075,0.750075 0 0 1 -0.5625,0.0312 l -0.875,-0.34375 a 0.750075,0.750075 0 0 1 -0.28125,-0.21875 l -0.125,0.125 -0.65625,0.8125 -0.0625,0.0625 -0.0312,0.0312 -0.25,0.53125 a 0.750075,0.750075 0 0 1 -0.28125,0.3125 l -0.78125,0.5 a 0.750075,0.750075 0 0 1 -1.0938,-0.34365 l -0.53125,-1.21875 a 0.750075,0.750075 0 0 1 -0.0937,-0.21875 l -0.0625,-0.65625 -0.3125,-0.5625 -0.0625,-0.0625 -0.40625,-0.5625 a 0.750075,0.750075 0 0 1 -0.0312,0 l -0.59375,-0.78125 -0.84375,-0.1875 -1.875,-0.0312 a 0.750075,0.750075 0 0 1 -0.375,-0.0625 l -0.5625,-0.3125 -0.0937,-0.0625 -0.625,-0.25 -0.65625,0.0937 a 0.750075,0.750075 0 0 1 -0.75,-0.4375 l -0.0312,-0.125 -0.34375,0 -0.0625,0.0625 -1.5625,0.53125 a 0.750075,0.750075 0 0 1 -0.375,0.0312 l -1.53125,-0.25 a 0.750075,0.750075 0 0 1 -0.0625,-0.0312 l -1.4375,-0.4375 -0.0312,0 -0.75,1.0625 a 0.750075,0.750075 0 0 1 -0.65625,0.34375 l -0.53125,-0.0312 -0.0312,0.5 a 0.750075,0.750075 0 0 1 -0.6875,0.71875 l -0.0937,0 a 0.750075,0.750075 0 0 1 -0.375,0.59375 l -1.03125,0.53125 a 0.750075,0.750075 0 0 1 -0.34375,0.0937 l -60.40625,-0.0625 0,50.5625 0.46875,-0.0625 a 0.750075,0.750075 0 0 1 0.4375,0.0625 l 1.71875,0.78125 0.84375,-0.5625 a 0.750075,0.750075 0 0 1 0.5625,-0.15625 l 1.9375,0.375 0.0625,0 2.40625,0.28125 a 0.750075,0.750075 0 0 1 0.375,0.15625 l 2,1.6875 a 0.750075,0.750075 0 0 1 0.25,0.375 l 0.5,2.0625 0.0312,0.0312 a 0.750075,0.750075 0 0 1 0.28125,-0.25 l 1.21875,-0.59375 a 0.750075,0.750075 0 0 1 0.53125,-0.0937 l 1.09375,0.25 1.875,0.15625 a 0.750075,0.750075 0 0 1 0.21875,0.0312 l 1.1875,0.46875 a 0.750075,0.750075 0 0 1 0.4375,0.53125 l 0.65625,3.03125 1.34375,1.90625 0.9375,0.0312 a 0.750075,0.750075 0 0 1 0.3125,0.0937 l 1.84375,0.78125 a 0.750075,0.750075 0 0 1 0.18725,0.1564 l 2.3125,2.03125 a 0.750075,0.750075 0 0 1 0.21875,0.34375 l 0.34375,1.21875 1.25,0.90625 0.0312,0.0312 1.53125,0.625 0.5,-0.0625 -0.125,-0.96875 a 0.750075,0.750075 0 0 1 0.125,-0.53125 l 0.5625,-0.75 a 0.750075,0.750075 0 0 1 0.5,-0.3125 l 0.8125,-0.125 a 0.750075,0.750075 0 0 1 0.46875,0.0937 l 0.75,0.40625 1.875,-0.28125 a 0.750075,0.750075 0 0 1 0.4375,0.0625 l 1.4375,0.71875 0.84375,-0.15625 a 0.750075,0.750075 0 0 1 0.4375,0.0937 l 1.21875,0.59375 0.0312,0 0.9375,0.15625 0.46875,-0.46875 a 0.750075,0.750075 0 0 1 0.28125,-0.1875 l 1,-0.34375 a 0.750075,0.750075 0 0 1 0.65625,0.0312 l 1.125,0.625 0.0625,0.0625 1.875,0.40625 1.4375,-0.40625 0.0312,0 1.21875,-0.40625 a 0.750075,0.750075 0 0 1 0.15625,-0.0312 l 0.65625,-0.0625 0.0312,-0.0625 0.78125,-0.28125 a 0.750075,0.750075 0 0 1 0.0312,-0.0312 l 1.0625,-0.375 a 0.750075,0.750075 0 0 1 0.5625,0.0625 l 1.65625,0.8125 a 0.750075,0.750075 0 0 1 0.40625,0.78125 l -0.1875,1.15625 0.46875,1.09375 0.0625,0.0937 0.75,1.09375 a 0.750075,0.750075 0 0 1 0.125,0.1875 l 0.40625,1.25 a 0.750075,0.750075 0 0 1 0.0312,0.3125 l -0.125,1.0625 8.8125,4.34375 1.8125,0.15625 a 0.750075,0.750075 0 0 1 0.40625,0.125 l 1.46875,1.09375 a 0.750075,0.750075 0 0 1 0.34375,0.53125 l 0.5625,-0.28125 -0.25,-1.96875 0.5,-0.25 0.5,0 -0.5,-1.21875 -1,-0.25 0.5,-0.96875 -0.5,-1.25 0.5,0.25 0.5,-1.71875 0.96875,-3.90625 -0.25,-2.46875 0.5,-1.46875 -0.5,0 1.25,-0.96875 -0.75,-1 1,0.25 1.9375,-4.65625 1.71875,-0.5 -0.71875,-1.46875 0.71875,-0.25 0,1 0.5,-0.25 -0.5,-1.46875 -0.46875,0.25 0.21875,-0.5 -0.96875,-0.25 1.71875,-0.71875 0.5,-1.71875 -0.5,-0.75 0.71875,-0.25 0,-1.71875 1.96875,-1.9375 -0.71875,-0.25 1.21875,-0.25 -1.46875,-0.5 1.71875,-0.25 0.25,-1.21875 -0.75,0.5 -0.5,-0.5 0.75,0.25 -0.25,-0.75 0.75,0.5 0.25,-1.96875 0,-0.25 -0.5,0.5 0,-0.71875 -0.25,0.21875 -0.25,-0.71875 0.75,0.5 0.25,-1.25 0,1 0.96875,-0.5 0.25,-1.21875 -0.5,-0.5 0.96875,0 0.75,-1.96875 -0.75,1 -0.21875,-1 0.71875,0 0,-0.96875 0.25,0.96875 0.96875,-1.71875 -0.21875,-0.46875 0.46875,0 0,0.71875 2.96875,-1.71875 -1,-0.25 -0.96875,0.75 -0.25,-0.25 0.5,-0.5 -0.25,-0.46875 0.96875,0.46875 0.75,-0.46875 0.25,0.46875 0.96875,-1.46875 1.71875,-0.96875 0.25,-1.96875 -0.75,-0.25 0,0.5 -0.96875,-0.5 0.96875,0 0.25,0 0.25,-1.71875 1.71875,-1.46875 2.1875,-7.09375 -0.21875,-4.90625 1.71875,-4.4375 0.21875,-0.71875 0.75,-4.1875 -0.75,-0.46875 0.75,0.25 -0.25,-1 1.96875,-3.6875 -0.5,0 0.5,-0.21875 0.25,-1.96875 -0.75,-1 0.125,-1.5 a 0.750075,0.750075 0 0 1 -0.125,0 l -0.84375,0.0937 a 0.750075,0.750075 0 0 1 -0.15625,0 l -0.75,-0.0625 -0.3125,0.25 a 0.750075,0.750075 0 0 1 -0.1875,0.125 l -0.59375,0.28125 a 0.750075,0.750075 0 0 1 -0.21875,0.0312 l -0.65625,0.0625 a 0.750075,0.750075 0 0 1 -0.25,-0.0312 l -0.84375,-0.21875 -0.96875,0.4375 a 0.750075,0.750075 0 0 1 -0.8125,-0.1875 l -0.84375,-0.8125 -0.5,-0.15625 z"
       id="path5333"
       style="fill:#cdc3cc;fill-opacity:1;stroke:none" />
  </g>
</svg>
