<?xml version="1.0" encoding="UTF-8" standalone="no"?>
<!-- Created with Inkscape (http://www.inkscape.org/) -->

<svg
   xmlns:dc="http://purl.org/dc/elements/1.1/"
   xmlns:cc="http://creativecommons.org/ns#"
   xmlns:rdf="http://www.w3.org/1999/02/22-rdf-syntax-ns#"
   xmlns:svg="http://www.w3.org/2000/svg"
   xmlns="http://www.w3.org/2000/svg"
   xmlns:sodipodi="http://sodipodi.sourceforge.net/DTD/sodipodi-0.dtd"
   xmlns:inkscape="http://www.inkscape.org/namespaces/inkscape"
   width="120.07213"
   height="154.5602"
   id="svg4048"
   version="1.1"
   inkscape:version="0.48.4 r9939"
   sodipodi:docname="queensland.svg">
  <defs
     id="defs4050" />
  <sodipodi:namedview
     id="base"
     pagecolor="#ffffff"
     bordercolor="#666666"
     borderopacity="1.0"
     inkscape:pageopacity="0.0"
     inkscape:pageshadow="2"
     inkscape:zoom="0.35"
     inkscape:cx="146.46464"
     inkscape:cy="5.8515274"
     inkscape:document-units="px"
     inkscape:current-layer="layer1"
     showgrid="false"
     inkscape:window-width="1280"
     inkscape:window-height="1000"
     inkscape:window-x="0"
     inkscape:window-y="80"
     inkscape:window-maximized="1"
     fit-margin-top="0"
     fit-margin-left="0"
     fit-margin-right="0"
     fit-margin-bottom="0" />
  <metadata
     id="metadata4053">
    <rdf:RDF>
      <cc:Work
         rdf:about="">
        <dc:format>image/svg+xml</dc:format>
        <dc:type
           rdf:resource="http://purl.org/dc/dcmitype/StillImage" />
        <dc:title></dc:title>
      </cc:Work>
    </rdf:RDF>
  </metadata>
  <g
     inkscape:label="Layer 1"
     inkscape:groupmode="layer"
     id="layer1"
     transform="translate(-228.53536,-383.65351)">
    <g
       id="g5430"
       style="fill:#cdc3cc;fill-opacity:1"
       transform="translate(29.591615,366.39546)">
      <path
         inkscape:connector-curvature="0"
         d="m 234.38125,22.1625 -0.96875,0.25 -0.75,1.46875 -1.46875,0.5 0.25,1.21875 -0.75,3.1875 -0.25,0 -0.21875,1.71875 0.71875,0 -0.96875,0.25 -0.25,1.46875 0.5,0.71875 0.46875,-0.46875 -0.46875,0.71875 -0.5,-0.25 -0.25,1 -0.25,-1.71875 -1.21875,1.96875 0.75,0.25 -0.75,0 -0.96875,2.4375 0.71875,0 -0.25,-0.96875 0.75,0.21875 -0.5,0.25 1,0.75 1.21875,0 -1.21875,0.5 1.21875,0.46875 -0.5,0.25 0.25,1.21875 -0.96875,-1.71875 -0.5,1.25 -1.21875,0.96875 0.71875,2.21875 -0.25,0.71875 0.5,-0.25 -0.25,0.25 0.5,0.25 -1,0 -1.21875,3.6875 1.21875,2.6875 -0.71875,2.46875 0.96875,4.40625 -1.46875,3.90625 -0.71875,2.96875 0.46875,1.21875 -1.71875,4.90625 -1.9375,2.4375 -0.5,3.1875 -2.21875,1.71875 -4.15625,1 -0.5,-0.25 -1.46875,-0.96875 -1.71875,-0.25 -0.96875,-1.25 -1.71875,-0.71875 -0.5,-2.21875 -0.96875,-0.96875 -3.1875,-1 -3.9375,-0.46875 -1.34375,-1.8125 0,82.5625 23,0 0.0312,0 a 0.750075,0.750075 0 0 1 0.0625,-0.0312 0.750075,0.750075 0 0 1 0.0312,0 0.750075,0.750075 0 0 1 0.0312,0 0.750075,0.750075 0 0 1 0.0625,0 0.750075,0.750075 0 0 1 0.0312,0.0312 0.750075,0.750075 0 0 1 0.0312,0 0.750075,0.750075 0 0 1 0.0312,0 0.750075,0.750075 0 0 1 0.0312,0 0.750075,0.750075 0 0 1 0.0625,0 0.750075,0.750075 0 0 1 0.0312,0.0312 0.750075,0.750075 0 0 1 0.0312,0 0.750075,0.750075 0 0 1 0.0312,0.0312 0.750075,0.750075 0 0 1 0.0312,0 0.750075,0.750075 0 0 1 0.0312,0.0312 0.750075,0.750075 0 0 1 0.0312,0 0.750075,0.750075 0 0 1 0.0312,0.0625 0.750075,0.750075 0 0 1 0.0312,0 0.750075,0.750075 0 0 1 0.0312,0.0312 0.750075,0.750075 0 0 1 0.0312,0.0625 0.750075,0.750075 0 0 1 0.0312,0 0.750075,0.750075 0 0 1 0.125,0.25 0.750075,0.750075 0 0 1 0.0312,0.0937 0.750075,0.750075 0 0 1 0.0312,0.0625 0.750075,0.750075 0 0 1 0,0.0937 l 0,18.71875 60.21875,0.0937 0.375,-0.1875 0,-0.15625 a 0.750075,0.750075 0 0 1 0.6875,-0.8125 l 0.1875,-0.0312 0.0625,-0.625 a 0.750075,0.750075 0 0 1 0.78125,-0.6875 l 0.875,0.0312 0.625,-0.96875 a 0.750075,0.750075 0 0 1 0.5625,-0.3125 l 0.625,-0.0625 a 0.750075,0.750075 0 0 1 0.3125,0.0312 l 1.4375,0.46875 0.0625,0 1.21875,0.21875 1.4375,-0.53125 a 0.750075,0.750075 0 0 1 0.1875,-0.0312 l 1.03125,-0.0937 a 0.750075,0.750075 0 0 1 0.78125,0.4375 l 0.0312,0.0937 0.28125,-0.0312 a 0.750075,0.750075 0 0 1 0.34375,0.0625 l 0.875,0.34375 a 0.750075,0.750075 0 0 1 0.0625,0.0312 l 0.46875,0.25 1.78125,0.0312 a 0.750075,0.750075 0 0 1 0.125,0.0312 l 1.3125,0.28125 a 0.750075,0.750075 0 0 1 0.4375,0.3125 l 0.71875,0.9375 0,0.0312 0.46875,0.53125 a 0.750075,0.750075 0 0 1 0.0625,0.0625 l 0.5,0.8125 a 0.750075,0.750075 0 0 1 0.125,0.3125 l 0.0625,0.75 0.0937,0.21875 0.1875,-0.34375 a 0.750075,0.750075 0 0 1 0.0625,-0.125 l 0.78125,-0.9375 0.75,-0.90625 a 0.750075,0.750075 0 0 1 1.1875,0.0937 l 0.34375,0.5625 0.34375,0.15625 0.59375,-0.3125 0.0937,-0.25 a 0.750075,0.750075 0 0 1 0.0625,-0.15625 0.750075,0.750075 0 0 1 0,-0.0312 0.750075,0.750075 0 0 1 -0.15625,-0.28125 l -0.3125,-1.21875 a 0.750075,0.750075 0 0 1 -0.0312,-0.3125 l 0.125,-0.875 a 0.750075,0.750075 0 0 1 0.65625,-0.59375 l 1.03125,-0.125 1.0625,-0.0937 0.53125,-0.53125 a 0.750075,0.750075 0 0 1 0.0625,-0.0625 l 1,-0.71875 a 0.750075,0.750075 0 0 1 0.40625,-0.15625 0.750075,0.750075 0 0 1 0.25,0.0312 l 1.09375,0.3125 a 0.750075,0.750075 0 0 1 0.3125,0.1875 l 0.59375,0.59375 0.71875,-0.3125 a 0.750075,0.750075 0 0 1 0.5,-0.0312 l 1,0.25 0.28125,-0.0312 0.34375,-0.125 0.1875,-0.0937 0.40625,-0.375 a 0.750075,0.750075 0 0 1 0.5625,-0.15625 l 0.875,0.0937 0.15625,0 0.6875,-0.0625 a 0.750075,0.750075 0 0 1 0.0625,-0.0312 l -0.625,-0.65625 -0.71875,-2.9375 -0.5,-2.21875 -0.75,-0.96875 -0.75,0.46875 0.5,-0.71875 -0.96875,-0.5 0.71875,-0.75 -0.71765,-0.7184 0.96875,-0.5 -0.71875,-0.71875 0,-0.75 1.21875,1.46875 -0.75,-2.21875 -0.25,0.75 0.5,-1.96875 L 315.6,151.6 l 0.21875,-2.125 -0.46875,0 0.96875,-3.9375 -0.5,0 -0.46875,-0.96875 -0.5,1.46875 0.25,-1.21875 -0.75,0 0.5,-0.5 -1,-0.75 0,-1.46875 0.75,-0.71875 -1.46875,0.46875 1.21875,-0.46875 -0.25,-1.25 -2.6875,-0.71875 0.71875,-0.5 -1.46875,-1.71875 0.25,-0.96875 -0.71875,-0.5 -0.25,0.5 0.25,-0.75 -1.46875,-0.71875 0,0.25 -1.25,-1.25 -1.21875,-3.1875 -0.96875,-0.25 0.25,-0.96875 -0.5,0.75 0,-0.75 -0.75,-0.25 0.5,1 -0.96875,-0.5 0,0.5 -1,-0.5 0,0.5 -3.1875,-4.4375 -0.71875,1 -1,-1.46875 0.5,-0.25 -0.75,-1.46875 0.5,-0.5 -0.75,-2.6875 0.5,0 0.25,-1.96875 -0.5,-1.21875 0,0.71875 -0.46875,-0.21875 -0.5,-1 0.71875,0.25 0.25,-0.25 -0.71875,-1.21875 0,0.96875 -0.25,-0.96875 -0.5,-0.25 -0.25,0.75 0.75,1.21875 -0.5,-0.25 0.5,1.21875 -3.4375,-2.4375 -1.21875,-1.96875 -0.25,0.5 -0.75,1.21875 0.75,1.71875 0.5,0.96875 -0.5,-0.46875 -1.46875,-1.71875 -1.46875,1.71875 0.71875,-1.71875 -0.96875,0 0.5,-0.25 -0.25,-0.5 -1,0.25 1,-0.5 -1.46875,-3.4375 0.46875,-2.6875 -0.21875,0.5 -1,-1 -0.25,0.5 0,-2.21875 -0.96875,0.5 0.25,-0.75 -0.25,0 0.5,-1.21875 -1,-0.96875 -0.71875,0.5 0.21875,-1 -1.71875,0 -0.21875,-0.71875 0.46875,-0.25 -1.21875,-0.75 0.25,-0.5 -0.75,-0.71875 0.75,-0.25 -0.5,-0.5 0.75,0.25 0.25,-0.5 1.21875,1 -1.46875,-2.46875 -0.5,0.25 0,-0.71875 -0.71875,0 -0.25,-1 -0.75,0 -0.25,0 0,1 -0.71875,-0.25 -1,-1 0.25,-0.21875 0,-0.25 -1.21875,-0.75 -1.46875,0.25 -0.5,-1.71875 -0.71875,0 0.46875,1.21875 -0.96875,-0.25 -1.46875,-1.46875 0.96875,0.5 -1.46875,-3.1875 0,0.96875 -2.21875,0.25 -0.96875,-2.1875 -0.25,0.96875 -0.71875,0 -0.75,-0.96875 -2.4375,-1 L 263.1,86.9125 263.56875,84.225 262.6,84.225 260.88125,81.2875 262.1,77.1 l -0.5,0 0,-1.9375 -1.46875,-2.71875 0.5,-1.21875 -1.21875,0.25 -2.9375,-3.9375 0,-1.21875 0.46875,0 0,-1.71875 -0.96875,-1.21875 -0.25,-2.71875 -0.96875,-0.96875 1.21875,-1.46875 0,-0.25 -0.75,0.25 -0.25,-1.21875 1,-1.25 -0.5,0 -0.5,-0.96875 -1.46875,-0.25 -0.96875,-1.46875 -1.71875,-0.5 -1.21875,-3.1875 -1.46875,1.25 -1,-0.5 -0.46875,1.46875 -1.5,0.75 -1.21875,-1 -0.71875,-3.1875 -1.25,-1.96875 0.5,-2.4375 -0.71875,-2.46875 0.21875,-2.1875 -1.46875,0.46875 0.75,-2.1875 -1.46875,-1 0,-0.96875 -1.21875,-0.25 -0.25,-1.71875 1.46875,-1.21875 -1.21875,-0.5 -1,0.25 -0.71875,-0.71875 0,-3.6875 -1,-2.9375 -0.71875,0 -0.5,-1 0,0.5 -0.96875,0.5 1.21875,-1.96875 -0.25,-0.25 -0.25,-0.25 z"
         id="path5335"
         style="fill:#cdc3cc;fill-opacity:1;stroke:none" />
      <g
         id="g5351"
         style="fill:#cdc3cc;fill-opacity:1">
        <polygon
           points="184.813,44.896 185.026,45.535 185.876,45.322 184.813,44.258 183.109,44.896 182.045,45.961 183.109,46.6 183.536,45.961 184.173,46.174 "
           id="polygon185-1"
           style="fill:#cdc3cc;fill-opacity:1;stroke:none"
           transform="matrix(1.1517917,0,0,1.1517917,-1.5312076,16.077462)" />
        <polygon
           points="185.026,49.155 184.599,48.517 183.749,49.155 183.961,49.582 "
           id="polygon193-7"
           style="fill:#cdc3cc;fill-opacity:1;stroke:none"
           transform="matrix(1.1517917,0,0,1.1517917,-1.5312076,16.077462)" />
        <polygon
           points="230.173,58.952 229.961,57.248 229.322,56.822 229.536,57.674 228.469,57.248 229.322,58.1 229.322,58.952 "
           id="polygon277-1"
           style="fill:#cdc3cc;fill-opacity:1;stroke:none"
           transform="matrix(1.1517917,0,0,1.1517917,-1.5312076,16.077462)" />
        <polygon
           points="201.849,5.286 202.489,5.924 203.128,5.498 202.489,4.646 "
           id="polygon279-8"
           style="fill:#cdc3cc;fill-opacity:1;stroke:none"
           transform="matrix(1.1517917,0,0,1.1517917,-1.5312076,16.077462)" />
        <polygon
           points="202.915,1.452 202.489,1.877 202.489,2.09 203.128,2.517 203.552,1.877 "
           id="polygon281-9"
           style="fill:#cdc3cc;fill-opacity:1;stroke:none"
           transform="matrix(1.1517917,0,0,1.1517917,-1.5312076,16.077462)" />
        <polygon
           points="232.516,60.869 231.876,60.23 231.666,60.869 "
           id="polygon283-2"
           style="fill:#cdc3cc;fill-opacity:1;stroke:none"
           transform="matrix(1.1517917,0,0,1.1517917,-1.5312076,16.077462)" />
        <polygon
           points="201.849,1.665 202.276,1.877 202.489,1.025 201.849,1.452 "
           id="polygon285-7"
           style="fill:#cdc3cc;fill-opacity:1;stroke:none"
           transform="matrix(1.1517917,0,0,1.1517917,-1.5312076,16.077462)" />
        <polygon
           points="233.581,63.851 233.793,63.424 233.156,63.424 "
           id="polygon287-9"
           style="fill:#cdc3cc;fill-opacity:1;stroke:none"
           transform="matrix(1.1517917,0,0,1.1517917,-1.5312076,16.077462)" />
        <polygon
           points="247.424,71.73 248.489,71.73 248.062,71.304 247.637,70.665 "
           id="polygon351-3"
           style="fill:#cdc3cc;fill-opacity:1;stroke:none"
           transform="matrix(1.1517917,0,0,1.1517917,-1.5312076,16.077462)" />
        <polygon
           points="253.813,84.934 253.813,85.146 254.026,85.572 254.026,84.294 "
           id="polygon353-1"
           style="fill:#cdc3cc;fill-opacity:1;stroke:none"
           transform="matrix(1.1517917,0,0,1.1517917,-1.5312076,16.077462)" />
        <polygon
           points="247.849,70.026 247.211,70.665 247.637,70.665 "
           id="polygon355-2"
           style="fill:#cdc3cc;fill-opacity:1;stroke:none"
           transform="matrix(1.1517917,0,0,1.1517917,-1.5312076,16.077462)" />
        <polygon
           points="276.599,104.738 276.599,103.248 275.536,104.1 276.386,105.378 274.682,107.295 275.109,107.295 274.682,108.785 274.258,109.85 275.109,111.341 277.026,105.59 "
           id="polygon371-3"
           style="fill:#cdc3cc;fill-opacity:1;stroke:none"
           transform="matrix(1.1517917,0,0,1.1517917,-1.5312076,16.077462)" />
        <polygon
           points="262.543,94.942 261.693,94.304 261.267,94.517 261.906,95.369 263.183,96.859 262.97,94.517 "
           id="polygon373-4"
           style="fill:#cdc3cc;fill-opacity:1;stroke:none"
           transform="matrix(1.1517917,0,0,1.1517917,-1.5312076,16.077462)" />
        <polygon
           points="258.498,85.999 257.859,85.359 257.646,85.999 257.859,86.424 "
           id="polygon375-1"
           style="fill:#cdc3cc;fill-opacity:1;stroke:none"
           transform="matrix(1.1517917,0,0,1.1517917,-1.5312076,16.077462)" />
        <polygon
           points="277.666,125.822 278.303,123.692 277.666,123.267 277.452,125.609 "
           id="polygon377-1"
           style="fill:#cdc3cc;fill-opacity:1;stroke:none"
           transform="matrix(1.1517917,0,0,1.1517917,-1.5312076,16.077462)" />
        <polygon
           points="277.568,126.215 277.452,126.674 277.452,127.313 277.608,126.229 "
           id="polygon379-3"
           style="fill:#cdc3cc;fill-opacity:1;stroke:none"
           transform="matrix(1.1517917,0,0,1.1517917,-1.5312076,16.077462)" />
        <polygon
           points="277.568,126.215 277.608,126.229 277.635,126.035 277.613,126.035 "
           id="polygon381-8"
           style="fill:#cdc3cc;fill-opacity:1;stroke:none"
           transform="matrix(1.1517917,0,0,1.1517917,-1.5312076,16.077462)" />
        <polygon
           points="277.635,126.035 277.666,125.822 277.613,126.035 "
           id="polygon383-7"
           style="fill:#cdc3cc;fill-opacity:1;stroke:none"
           transform="matrix(1.1517917,0,0,1.1517917,-1.5312076,16.077462)" />
        <polygon
           points="277.666,123.054 277.878,120.499 277.239,120.924 "
           id="polygon385-4"
           style="fill:#cdc3cc;fill-opacity:1;stroke:none"
           transform="matrix(1.1517917,0,0,1.1517917,-1.5312076,16.077462)" />
        <polygon
           points="260.414,95.155 260.84,95.582 261.053,94.942 "
           id="polygon387-2"
           style="fill:#cdc3cc;fill-opacity:1;stroke:none"
           transform="matrix(1.1517917,0,0,1.1517917,-1.5312076,16.077462)" />
        <polygon
           points="256.369,81.1 256.369,81.526 256.793,81.313 "
           id="polygon389-7"
           style="fill:#cdc3cc;fill-opacity:1;stroke:none"
           transform="matrix(1.1517917,0,0,1.1517917,-1.5312076,16.077462)" />
      </g>
    </g>
  </g>
</svg>
