<?xml version="1.0" encoding="UTF-8" standalone="no"?>
<!-- Created with Inkscape (http://www.inkscape.org/) -->

<svg
   xmlns:dc="http://purl.org/dc/elements/1.1/"
   xmlns:cc="http://creativecommons.org/ns#"
   xmlns:rdf="http://www.w3.org/1999/02/22-rdf-syntax-ns#"
   xmlns:svg="http://www.w3.org/2000/svg"
   xmlns="http://www.w3.org/2000/svg"
   version="1.1"
   width="91.15625"
   height="103.34375"
   id="svg4314">
  <defs
     id="defs4316" />
  <metadata
     id="metadata4319">
    <rdf:RDF>
      <cc:Work
         rdf:about="">
        <dc:format>image/svg+xml</dc:format>
        <dc:type
           rdf:resource="http://purl.org/dc/dcmitype/StillImage" />
        <dc:title></dc:title>
      </cc:Work>
    </rdf:RDF>
  </metadata>
  <g
     transform="translate(-322.9933,-343.54745)"
     id="layer1">
    <g
       transform="translate(192.64335,191.5412)"
       id="g5337"
       style="fill:#cdc3cc;fill-opacity:1">
      <path
         d="m 130.35,152.00625 0,43.78125 7.40625,-0.6875 1.21875,-0.25 4.90625,0.5 2.6875,-1.5 4.65625,2.46875 3.4375,2.6875 2.21875,0 -0.25,-0.46875 0.5,-0.25 1.71875,0 2.9375,2.4375 2.9375,0 -0.71875,-0.71875 0.46875,-0.25 0.5,0.5 0.5,-0.75 2.6875,2.6875 -0.75,0.25 0,1.21875 1.5,-0.71875 0.96875,0.25 0.96875,1.9375 -0.71875,1 0.25,-0.75 -1.25,0 0.5,1 -0.5,0.71875 1,0.25 -0.5,0.75 1.46875,1.46875 -0.5,-1.46875 0.75,1.46875 0.75,-0.5 1.46875,1 -0.75,-0.75 1.21875,0.25 -0.46875,0.5 1.46875,1.9375 0,1.46875 2.6875,2.46875 1.46875,6.625 0.25,-0.75 0.25,0.75 0.5,0.25 -1,0.25 -0.5,-1 0.25,-0.25 -0.96875,-0.25 0,-0.46875 -0.75,1.46875 1,-0.5 2.9375,3.6875 1.21875,-0.75 1.21875,1.46875 0.5,-2.6875 -1.71875,0.75 0.75,-0.5 0.25,-1.96875 0.96875,-0.5 0.5,0.5 0,-1.71875 3.65625,-4.15625 2.96875,-1.46875 -0.75,0.21875 0.5,-0.96875 0.5,0.5 1.6875,-0.5 1.71875,-4.90625 1.46875,-1.71875 1,0.5 0,-4.90625 1.21875,2.6875 0.25,2.21875 0.75,0.71875 -1.96875,1.71875 1.46875,2.71875 -2.9375,2.9375 -0.75,2.1875 -0.5,0.25 0.5,1.46875 -0.75,1.5 0.5,-0.25 0.25,1.46875 -0.5,2.9375 -0.46875,0.5 -2.96875,-0.75 -1.21875,3.6875 2.46875,-0.25 1.9375,-1.46875 1.71875,0.71875 1,-0.46875 -0.5,-0.5 1.21875,-2.6875 0.25,-2.46875 1.46875,-3.4375 3.4375,5.96875 0.25,0.40625 -0.5,0.25 -0.25,-0.71875 -0.21875,5.375 -2.71875,2.46875 3.4375,0.25 1.46875,-1.21875 1.21875,0.21875 3.6875,2.9375 -3.6875,-2.6875 3.1875,2.46875 2.09375,2.6875 -1.59375,-2.4375 1.21875,0.96875 1.5,3.1875 -0.65625,-1 1.875,4.9375 -0.25,1.21875 -1.21875,1.21875 0.96875,1.46875 -0.5,0.75 1.96875,2.6875 2.84375,3.8125 0.0937,0.34375 1.5,1.25 2.3125,0.15625 a 0.750075,0.750075 0 0 1 -0.125,-0.40625 l 0,-102.9375 -91.03125,0 z"
         id="path5271"
         style="fill:#cdc3cc;fill-opacity:1;stroke:none" />
      <polygon
         points="184.92,191.637 185.312,192.246 185.239,192.053 "
         transform="matrix(1.1517917,0,0,1.1517917,-1.5312076,16.077462)"
         id="polygon431-7"
         style="fill:#cdc3cc;fill-opacity:1;stroke:none" />
      <polygon
         points="170.97,191.415 171.822,190.776 172.035,189.923 174.804,189.923 175.229,189.072 173.738,188.433 172.887,189.499 173.1,188.433 171.608,188.433 172.035,187.156 165.007,188.646 164.581,189.711 165.86,191.202 167.777,190.989 169.267,190.563 "
         transform="matrix(1.1517917,0,0,1.1517917,-1.5312076,16.077462)"
         id="polygon433-9"
         style="fill:#cdc3cc;fill-opacity:1;stroke:none" />
      <polygon
         points="161.6,182.044 162.453,183.109 162.239,182.47 "
         transform="matrix(1.1517917,0,0,1.1517917,-1.5312076,16.077462)"
         id="polygon435-3"
         style="fill:#cdc3cc;fill-opacity:1;stroke:none" />
      <polygon
         points="144.776,161.174 145.415,160.536 144.563,160.748 "
         transform="matrix(1.1517917,0,0,1.1517917,-1.5312076,16.077462)"
         id="polygon437-1"
         style="fill:#cdc3cc;fill-opacity:1;stroke:none" />
    </g>
  </g>
</svg>
