<?xml version="1.0" encoding="UTF-8" standalone="no"?>
<!-- Created with Inkscape (http://www.inkscape.org/) -->

<svg
   xmlns:dc="http://purl.org/dc/elements/1.1/"
   xmlns:cc="http://creativecommons.org/ns#"
   xmlns:rdf="http://www.w3.org/1999/02/22-rdf-syntax-ns#"
   xmlns:svg="http://www.w3.org/2000/svg"
   xmlns="http://www.w3.org/2000/svg"
   version="1.1"
   width="67.125053"
   height="42.468651"
   id="svg4243">
  <defs
     id="defs4245" />
  <metadata
     id="metadata4248">
    <rdf:RDF>
      <cc:Work
         rdf:about="">
        <dc:format>image/svg+xml</dc:format>
        <dc:type
           rdf:resource="http://purl.org/dc/dcmitype/StillImage" />
        <dc:title></dc:title>
      </cc:Work>
    </rdf:RDF>
  </metadata>
  <g
     transform="translate(-446.43748,-416.84214)"
     id="layer1">
    <g
       transform="translate(223.77493,193.33589)"
       id="g5344"
       style="fill:#cdc3cc;fill-opacity:1">
      <path
         d="m 223.38125,223.50625 -0.5,0.0625 0,31.375 a 0.750075,0.750075 0 0 1 -0.0625,0.34375 0.750075,0.750075 0 0 1 -0.0312,0.0312 0.750075,0.750075 0 0 1 -0.0625,0.0625 0.750075,0.750075 0 0 1 -0.0625,0.0937 l 2.65625,2.15625 0,1.21875 0.71875,-0.21875 0.75,0.46875 1.46875,-1.71875 2.9375,1.46875 1.96875,-0.46875 9.0625,4.90625 3.6875,-3.6875 2.9375,-1.96875 1.71875,0 0.5,-1.46875 -1.71875,0.5 -0.96875,-0.75 1.21875,0 3.1875,-2.4375 1.46875,2.9375 -1.46875,1.96875 -2.21875,-0.5 2.21875,1.96875 1.46875,-1 0.75,0.25 0.21875,-1.9375 1.71875,0 0.5,1.46875 -0.96875,0.21875 -0.25,1.5 1.71875,1.21875 1.71875,-0.25 0.21875,0.5 -0.71875,-0.25 1.21875,2.1875 1,-0.71875 0.96875,0.5 -0.25,-0.75 1,1.96875 1.21875,1.21875 0.46875,-3.1875 -1.46875,0.96875 -0.46875,-1.9375 2.4375,0 2.90625,-1 4.71875,-4.90625 3.1875,-1.96875 -3.9375,1.71875 2.21875,-1.46875 -0.0937,-0.0625 -0.65625,-0.65625 1.71875,0.46875 1.96875,-0.71875 -0.25,0.5 10.78125,-1 1.9375,-1.71875 a 0.750075,0.750075 0 0 1 -0.0625,-0.0312 l -1.25,-0.9375 -1.8125,-0.15625 a 0.750075,0.750075 0 0 1 -0.25,-0.0625 l -9.4375,-4.6875 a 0.750075,0.750075 0 0 1 -0.40625,-0.75 l 0.15625,-1.40625 -0.25,-0.84375 -0.8125,-1.1875 a 0.750075,0.750075 0 0 1 -0.0937,-0.15625 l -0.625,-1.40625 a 0.750075,0.750075 0 0 1 -0.0312,-0.4375 l 0.125,-0.8125 -0.90625,-0.4375 -0.6875,0.25 -0.0312,0 -0.78125,0.3125 a 0.750075,0.750075 0 0 1 -0.1875,0.0937 l -0.71875,0.0937 -1.25,0.40625 -1.6875,0.46875 a 0.750075,0.750075 0 0 1 -0.375,0 l -2.25,-0.5 a 0.750075,0.750075 0 0 1 -0.21875,-0.125 l -0.875,-0.5 -0.53125,0.1875 -0.65625,0.6875 a 0.750075,0.750075 0 0 1 -0.6875,0.15625 l -1.3125,-0.21875 a 0.750075,0.750075 0 0 1 -0.1875,-0.0625 l -1.1875,-0.53125 -0.875,0.0937 a 0.750075,0.750075 0 0 1 -0.46875,-0.0625 l -1.40625,-0.71875 -1.90625,0.28125 a 0.750075,0.750075 0 0 1 -0.46875,-0.0625 l -0.6875,-0.40625 -0.34375,0.0312 -0.1875,0.21875 0.21875,1.40625 a 0.750075,0.750075 0 0 1 -0.625,0.875 l -1.5,0.21875 a 0.750075,0.750075 0 0 1 -0.40625,-0.0312 L 250.0065,239.4123 A 0.750075,0.750075 0 0 1 249.85,239.35 l -1.46875,-1.09375 a 0.750075,0.750075 0 0 1 -0.25,-0.375 l -0.375,-1.28125 -2.125,-1.875 -0.0312,-0.0312 -1.5,-0.59375 -1.15625,-0.0312 a 0.750075,0.750075 0 0 1 -0.625,-0.34375 l -1.65625,-2.34375 A 0.750075,0.750075 0 0 1 240.56875,231.1 l -0.65625,-2.78125 -0.6875,-0.28125 -1.84375,-0.125 a 0.750075,0.750075 0 0 1 -0.0937,0 l -0.875,-0.21875 -0.5625,0.3125 -0.0312,0.65625 a 0.750075,0.750075 0 0 1 -1.28125,0.5 l -1.25,-1.125 a 0.750075,0.750075 0 0 1 -0.21875,-0.34375 l -0.5,-2.0625 -1.6875,-1.40625 -2.1875,-0.25 a 0.750075,0.750075 0 0 1 -0.0312,0 l -1.71875,-0.28125 -0.9375,0.65625 a 0.750075,0.750075 0 0 1 -0.75,0.0625 l -1.875,-0.90625 z"
         id="path5327"
         style="fill:#cdc3cc;fill-opacity:1;stroke:none" />
      <polygon
         points="234.22,212.499 234.192,212.507 233.793,212.924 "
         transform="matrix(1.1517917,0,0,1.1517917,-1.5312076,16.077462)"
         id="polygon457-6"
         style="fill:#cdc3cc;fill-opacity:1;stroke:none" />
      <polygon
         points="223.572,211.007 224.637,210.368 223.145,209.729 223.145,210.582 "
         transform="matrix(1.1517917,0,0,1.1517917,-1.5312076,16.077462)"
         id="polygon459-5"
         style="fill:#cdc3cc;fill-opacity:1;stroke:none" />
      <polygon
         points="232.516,213.776 231.026,213.776 231.666,214.202 "
         transform="matrix(1.1517917,0,0,1.1517917,-1.5312076,16.077462)"
         id="polygon461-0"
         style="fill:#cdc3cc;fill-opacity:1;stroke:none" />
      <polygon
         points="222.082,211.86 223.572,212.285 223.145,211.22 "
         transform="matrix(1.1517917,0,0,1.1517917,-1.5312076,16.077462)"
         id="polygon463-2"
         style="fill:#cdc3cc;fill-opacity:1;stroke:none" />
    </g>
  </g>
</svg>
